<?xml version="1.0" standalone="no"?>
<!DOCTYPE svg PUBLIC "-//W3C//DTD SVG 1.1//EN" "http://www.w3.org/Graphics/SVG/1.1/DTD/svg11.dtd" >
<svg xmlns="http://www.w3.org/2000/svg">
<metadata>
Created by FontForge 20120731 at Mon Sep 28 19:54:47 2015
 By Ads
</metadata>
<defs>
<font id="iconfont" horiz-adv-x="1024" >
  <font-face 
    font-family="iconfont"
    font-weight="500"
    font-stretch="normal"
    units-per-em="1024"
    panose-1="2 0 6 3 0 0 0 0 0 0"
    ascent="812"
    descent="-212"
    x-height="792"
    bbox="0 -224 1200 812"
    underline-thickness="50"
    underline-position="-100"
    unicode-range="U+0078-E653"
  />
<missing-glyph horiz-adv-x="374" 
d="M34 0v682h272v-682h-272zM68 34h204v614h-204v-614z" />
    <glyph glyph-name=".notdef" horiz-adv-x="374" 
d="M34 0v682h272v-682h-272zM68 34h204v614h-204v-614z" />
    <glyph glyph-name=".null" horiz-adv-x="0" 
 />
    <glyph glyph-name="nonmarkingreturn" horiz-adv-x="341" 
 />
    <glyph glyph-name="x" unicode="x" horiz-adv-x="1001" 
d="M281 543q-27 -1 -53 -1h-83q-18 0 -36.5 -6t-32.5 -18.5t-23 -32t-9 -45.5v-76h912v41q0 16 -0.5 30t-0.5 18q0 13 -5 29t-17 29.5t-31.5 22.5t-49.5 9h-133v-97h-438v97zM955 310v-52q0 -23 0.5 -52t0.5 -58t-10.5 -47.5t-26 -30t-33 -16t-31.5 -4.5q-14 -1 -29.5 -0.5
t-29.5 0.5h-32l-45 128h-439l-44 -128h-29h-34q-20 0 -45 1q-25 0 -41 9.5t-25.5 23t-13.5 29.5t-4 30v167h911zM163 247q-12 0 -21 -8.5t-9 -21.5t9 -21.5t21 -8.5q13 0 22 8.5t9 21.5t-9 21.5t-22 8.5zM316 123q-8 -26 -14 -48q-5 -19 -10.5 -37t-7.5 -25t-3 -15t1 -14.5
t9.5 -10.5t21.5 -4h37h67h81h80h64h36q23 0 34 12t2 38q-5 13 -9.5 30.5t-9.5 34.5q-5 19 -11 39h-368zM336 498v228q0 11 2.5 23t10 21.5t20.5 15.5t34 6h188q31 0 51.5 -14.5t20.5 -52.5v-227h-327z" />
    <glyph glyph-name="uniE600" unicode="&#xe600;" 
d="M758 20q18 0 32 2.5t23 11t15 26t8 47.5l122 -30q-3 -46 -20.5 -71t-46.5 -36.5t-67 -13.5t-81 -2h-16h-10h-15h-27q-44 0 -78 3t-57.5 17t-35.5 43t-12 81v2q-25 -2 -48 -3.5t-47 -4.5l-12 53q29 4 55 9.5t52 11.5v290h131q3 15 5 31t4 31h-257q2 -17 3 -33.5t3 -29.5
l-30 -5l61 -41q-14 -18 -28 -35.5t-32 -34.5v-385h-135v270q-23 -17 -42.5 -30t-34.5 -22q-17 -11 -30 -18l-47 64q77 66 129 128t78 100q-2 9 -7 28t-10 44h-167v76h152q-2 13 -5 27t-5 28l141 29v-25q0 -11 0.5 -26.5t1.5 -32.5h269q2 18 3.5 33.5t2.5 26.5q1 14 2 25
l139 -18q-3 -35 -9 -67h155v-76h-171q-11 -39 -19 -58q-4 -12 -8 -22l-107 9v-237q61 28 114.5 70t105.5 106l97 -89q-46 -42 -88.5 -71.5t-82 -50t-76 -34t-70.5 -21.5v-7q-1 -31 7 -49t23 -27.5t34.5 -13t39.5 -3.5h26z" />
    <glyph glyph-name="uniE601" unicode="&#xe601;" horiz-adv-x="1000" 
d="M119 -123l72 674h144v1q0 44 14.5 84t38.5 68t57.5 45t69.5 17q75 0 128 -62t53 -152v-1h144l72 -674h-793zM335 439q0 -5 2 -10.5t5 -10t7.5 -8t10 -5.5t11.5 -2q5 0 9 2q-20 27 -32 62q-6 -5 -9.5 -12t-3.5 -16zM364 475q5 -18 13 -33.5t18 -29.5q12 11 12 27
q0 5 -1 10t-3.5 9t-6 7t-7.5 5.5t-8.5 4t-9.5 1.5q-4 0 -7 -1zM519 733q-37 0 -69.5 -25.5t-51 -67.5t-19.5 -88h279q0 46 -18.5 88t-51 67.5t-69.5 25.5zM664 476q-15 0 -25.5 -11t-10.5 -26q0 -17 14 -28q21 28 32 63q-2 1 -4.5 1.5t-5.5 0.5zM684 470q-6 -18 -14 -34
t-19 -30q7 -3 13 -3q15 0 25.5 10.5t10.5 25.5q0 20 -16 31z" />
    <glyph glyph-name="uniE602" unicode="&#xe602;" horiz-adv-x="1000" 
d="M781 425v375h-562v-375h-125v-625h125v250h562v-250h125v625h-125zM344 675h312v-250h-312v250zM781 112h-562v188h562v-188z" />
    <glyph glyph-name="uniE603" unicode="&#xe603;" 
d="M830 692h-239q-10 34 -38 55.5t-64 21.5h-218q-36 0 -64.5 -22t-37.5 -56q-72 -10 -120.5 -64.5t-48.5 -128.5v-473q0 -80 57 -137t137 -57h636q80 0 137 57t57 137v473q0 90 -69 149q-55 45 -125 45zM931 25q0 -42 -29.5 -72t-71.5 -30h-636q-42 0 -71.5 30t-29.5 72
v473q0 28 13.5 51t37 36.5t50.5 13.5h18q13 0 23.5 6.5t16.5 17t6 23.5v18q0 5 4 9t9 4h218q6 0 9.5 -4t3.5 -9v-18q0 -19 13.5 -33t32.5 -14h282q20 0 39 -8t32.5 -21.5t21.5 -32t8 -39.5v-473zM519 515q-104 0 -178.5 -74.5t-74.5 -179t74.5 -179t179 -74.5t179 74.5
t74.5 178.5q0 69 -34 127.5t-92.5 92.5t-127.5 34zM519.5 101q-66.5 0 -113.5 47t-47 114q0 32 12.5 62t34 51.5t51.5 34t62 12.5q67 0 114 -47t47 -113.5t-47 -113.5t-113.5 -47zM490 306zM431 306q0 24 17 41.5t41.5 17.5t42 -17.5t17.5 -41.5q0 -16 -8 -29.5t-21.5 -21.5
t-29.5 -8t-29.5 8t-21.5 21.5t-8 29.5z" />
    <glyph glyph-name="uniE604" unicode="&#xe604;" 
d="M512 748q-185 0 -316.5 -131.5t-131.5 -316.5t131.5 -316.5t316.5 -131.5t316.5 131.5t131.5 316.5t-131.5 316.5t-316.5 131.5zM512 -127q-116 0 -214.5 57t-155.5 155.5t-57 214.5t57 214.5t155.5 155.5t214.5 57q87 0 166 -34t136 -91t91 -136t34 -166
q0 -116 -57 -214.5t-155.5 -155.5t-214.5 -57zM694 263q-9 11 -23.5 31.5t-19.5 27.5l-13 13l-31 31l-3 4q-3 2 -4 3.5t-3.5 2.5t-3.5 2q-4 1 -41 10q22 21 15 45q-12 38 -26 60q-16 24 -51 19.5t-46 -31.5q-9 -25 -1.5 -50t25.5 -39q1 -1 3 -2.5t4 -2t5 -1.5l5 -3
q-26 -11 -43 -22t-28 -28q-2 -4 -7 -6q-1 0 -5.5 -2.5t-5.5 -3t-4.5 -2.5t-5 -3t-4.5 -3.5t-4.5 -4.5t-3.5 -4.5t-3 -5.5q-2 -5 -7 -10t-11 -10t-9 -9q-7 -7 -11.5 -15.5t-6.5 -17.5t-2 -19q-1 -2 -2 -7.5t0 -8.5q0 -3 1.5 -5.5t2.5 -3.5l4 -4l3 -3q1 -2 3 -2.5t5 -0.5h4
q14 -2 15 8q10 17 -5 30q-2 13 4 23q4 6 15.5 13t14 9t5 3.5t5.5 1.5t7.5 -2t6.5 -1q2 0 4 1t4 3l3 3l4 4q2 2 4 3q3 2 6 3.5t7.5 3.5t6.5 3q0 -4 0.5 -9t1 -8.5t0.5 -7.5v-7v-5q-5 -15 -9 -23t-13 -17t-22 -12l-6 -3q-9 -6 -10.5 -17t5.5 -19q3 -4 6 -14q0 -2 0.5 -4.5
t1 -4.5t0.5 -4t0.5 -4.5t1 -4.5t0.5 -4q3 -14 -8 -16q-4 0 -10 0.5t-11.5 1.5t-11 0t-8.5 -4q-8 -9 -1.5 -23.5t17.5 -15.5q7 -2 15.5 -1.5t13.5 0.5t15 2.5t12.5 3t15 4.5t13.5 4q15 5 6 20q-17 26 -10 41q1 5 5.5 7.5t7.5 3t10.5 -0.5t8.5 -1q4 0 12 0.5t12 0.5
q11 0 12 -1q2 -2 -10 -16l-3 -3l-4 -4q-1 -1 -2.5 -3t-1.5 -4q-1 -2 0 -4t3 -3t3.5 -2t4.5 -2t4 -1l13 -7q9 -4 16.5 -6.5t13.5 -3.5q16 -2 10 13q-1 3 -12 20q19 11 20 11q12 5 26.5 17.5t25.5 27.5t10.5 30.5t-17.5 24.5q-6 3 -27 13q8 7 9 15.5t-2 20t-3 19.5
q39 -26 46 -31q16 -10 19 -27q1 -3 1 -7t0.5 -7t1.5 -6.5t3 -6.5l4 -6q6 -5 13.5 -6.5t14.5 -0.5q14 4 16 15q3 15 -8 30q-2 3 -9.5 7.5t-9.5 6.5z" />
    <glyph glyph-name="uniE605" unicode="&#xe605;" 
d="M832 812h-640l-192 -318l461 -706h102l461 706zM906 494h-167l61 177zM741 739l-65 -198l-76 198h141zM423 739l-75 -197l-65 197h140zM504 739h16l97 -245h-210zM632 405l-120 -363l-119 363h239zM225 671l60 -177h-167zM476 -66l-302 471h142zM549 -64l160 469h141z
" />
    <glyph glyph-name="uniE606" unicode="&#xe606;" 
d="M736 167q-33 0 -56 23.5t-23 56.5q0 22 10.5 40.5t28.5 29t40 10.5q33 0 56 -23.5t23 -56.5q0 -46 -40 -69q-19 -11 -39 -11zM288 167q-21 0 -39.5 11t-29 29t-10.5 40q0 11 3 21.5t8 19.5t12 16t16 12.5t19 8t21 2.5q33 0 56 -23.5t23 -56.5t-23 -56.5t-56 -23.5z
M374 644h276l110 -170h-496zM828 474l-148 226h-336l-147 -226h-133v-397h112v-141q0 -12 8.5 -20.5t19.5 -8.5h112q12 0 20 8.5t8 20.5v141h336v-141q0 -12 8.5 -20.5t19.5 -8.5h112q11 0 19.5 8.5t8.5 20.5v141h112v397h-132z" />
    <glyph glyph-name="uniE607" unicode="&#xe607;" 
d="M782 737h-108v-609q-13 4 -26.5 6t-27.5 2q-67 0 -114.5 -40t-47.5 -97q0 -37 21.5 -68.5t59 -49.5t81.5 -18q67 0 114.5 40t47.5 96v574l162 -54v109zM80 26h270v-109h-270v109zM80 245h378v-109h-378v109zM80 464h486v-110h-486v110zM80 683h540v-110h-540v110z" />
    <glyph glyph-name="uniE608" unicode="&#xe608;" 
d="M925 740h-826q-13 0 -24 -5t-19 -13t-13 -19t-5 -23v-523q0 -8 2.5 -16t6.5 -14.5t9.5 -12t12 -9t14 -5.5t16.5 -2h826q17 0 30.5 7.5t21.5 21.5t8 30v523q0 25 -17.5 42.5t-42.5 17.5zM873 230h-722v396h722v-396zM633 14h-243v-73h-242v-75h727v75h-242v73z" />
    <glyph glyph-name="uniE609" unicode="&#xe609;" 
d="M853 343q-25 0 -43 -9t-26 -21.5t-12 -25t-4 -21.5v-9v-85h-256h-256v85v9q0 6 -4 21t-12 26t-26 20.5t-43 9.5q-72 0 -84 -65q-4 -21 -2 -21v-298h427h427v298q0 65 -53 81q-14 5 -33 5zM299 300v-85h213h213v85q0 2 1 5l2 12q1 9 4 17t9.5 17.5t15 17t22.5 12t32 4.5
v86q0 4 -1 11.5t-6.5 30t-16 42.5t-33 44.5t-52.5 42.5t-79.5 30t-110.5 12v0v0q-209 0 -276 -131q-22 -44 -23 -82v-86q18 0 32 -4.5t22.5 -12t15 -16.5t9.5 -18.5t4.5 -17t2.5 -11.5v-5z" />
    <glyph glyph-name="uniE60A" unicode="&#xe60a;" horiz-adv-x="1027" 
d="M470 755q-60 0 -114 -27t-95 -69.5t-78 -103.5t-62 -120.5t-47 -128.5t-34.5 -120t-22.5 -103t-12.5 -69.5t-4.5 -26.5l451 -194l576 193q-17 143 -72 304q-120 346 -336 436q-70 29 -149 29zM603 665q57 -25 107 -74q90 -87 155 -242q36 -85 63 -186q-28 52 -56.5 95.5
t-64 85.5t-75 65.5t-77.5 23.5q-11 0 -22 -2q-31 -6 -57.5 -39.5t-44.5 -80t-32 -109.5t-22 -118.5t-14 -116.5q-30 213 -30 341q0 202 30 384h7q71 0 133 -27zM518 -118q8 113 23 208q20 130 51 205q16 39 33 60q5 6 10.5 10t9.5 5q5 1 10 1q12 0 26.5 -6t30.5 -17.5
t33 -28.5q25 -24 51 -59.5t52 -80.5q41 -71 79 -157zM154 349q58 158 133 245q41 48 86 73q12 7 25 12q-27 -179 -27 -371q0 -94 13 -211t29 -220l-344 148q31 176 85 324zM266 432q-17 4 -34.5 -7.5t-30 -30.5t-23 -39.5t-15.5 -34t-5 -14.5l164 -67l-1 67q-9 113 -55 126z
" />
    <glyph glyph-name="uniE60B" unicode="&#xe60b;" 
d="M615 546l-422 -422v0v0l-67 -208l208 67v0v1l422 421zM290 101l-23 24l348 348l24 -23zM755 686l-92 -92l140 -141l93 93z" />
    <glyph glyph-name="uniE60C" unicode="&#xe60c;" 
d="M761 697zM677 697q0 35 24.5 59.5t59.5 24.5t60 -24.5t25 -59.5t-25 -60t-60 -25q-23 0 -42.5 11.5t-30.5 31t-11 42.5zM952 307l-8 130q0 9 -5 18l-42 70v32q0 12 -8.5 21t-20.5 9h-177q-12 0 -20.5 -9t-8.5 -21v-51l-103 -73l-101 77v40q0 11 -8.5 19.5t-19.5 8.5h-169
q-11 0 -19.5 -8.5t-8.5 -19.5v-49l-157 -81q-8 -5 -4 -13l26 -50q5 -8 13 -4l122 64v-72v-90l-44 -104h44v-220q0 -4 3 -7t7 -3h56q9 0 9 10v220h37h30v-220q0 -4 3 -7t6 -3h56q10 0 10 10v220h52l-44 103v163l72 -56l14 -19q5 -7 13 -2v1l7 -6q3 -2 7 -1.5t6 3.5l30 39
l54 39v-172v-110v-305q0 -9 9 -9h57q9 0 9 9v276h87v-276q0 -4 3 -6.5t7 -2.5h55q3 0 5 1t3.5 3t1.5 5v415q0 1 -0.5 2t-0.5 2v21q7 -3 15 -3h2q17 1 28 13t10 29zM346 667zM266 667q0 33 23.5 56.5t56.5 23.5t56 -23.5t23 -56.5t-23 -56t-56 -23t-56.5 23t-23.5 56z" />
    <glyph glyph-name="uniE60D" unicode="&#xe60d;" 
d="M994 210q-2 -7 -6.5 -19.5t-20 -44.5t-33.5 -57q-15 -19 -31 -38q-2 -64 -34.5 -117t-85.5 -83v-33h-632v33q-37 21 -64 52.5t-42 71.5t-15 84q0 66 33 121.5t88 87.5v62v133v3q0 131 92.5 223.5t223.5 92.5t223.5 -92.5t92.5 -223.5v-3v-133v-62q40 -23 68 -60l83 62z
M467 719q-106 0 -181 -75t-75 -181h-1v-133h513v133q0 106 -75 181t-181 75zM625 240h-314q-80 0 -136.5 -53t-56.5 -128q0 -72 51.5 -124t127.5 -57l338 -1v1q90 4 145 72q38 49 38 109q0 75 -56.5 128t-136.5 53zM271 420h122q-1 8 -1 16q0 31 22 53t53 22t53 -22t22 -53
v-6q0 -2 -0.5 -4.5t-0.5 -5.5h122v-60h-392v60z" />
    <glyph glyph-name="uniE60E" unicode="&#xe60e;" 
d="M738 177q-3 0 -7 1t-10 6.5t-6 13.5v259q0 16 -13 29.5t-33 13.5h-7q7 12 7 22q-1 22 -4.5 57t-14.5 106t-36 106t-59 11q-12 -9 -29.5 -20.5t-30.5 -20t-28.5 -19.5t-26.5 -20.5t-21 -21t-16 -24t-7 -25.5v-129q0 -4 0.5 -7.5t1.5 -7t3 -7.5h-5q-20 0 -33 -13.5
t-13 -29.5v-259q0 -4 -2.5 -8t-6 -6t-6.5 -4t-5 -2l-3 -1q-7 0 -10.5 -0.5t-6.5 -2.5t-4 -6.5t-1 -12.5v-323q0 -14 6 -24t15.5 -14.5t22.5 -4.5q11 0 30.5 -0.5t33.5 -0.5h14v303q0 13 -8 18.5t-15.5 0t-7.5 -18.5v-271h-36q-3 0 -7 0.5t-10 6t-6 14.5v293l-1 1v4v5
q0 3 0.5 6.5t2 5.5t5 3.5t7.5 1.5q16 -3 21 16v272q0 3 1 6.5t6.5 9.5t14.5 6h30h67h78h68h31q10 0 15.5 -6t5.5 -11l1 -6q1 -248 1 -271q0 -8 6.5 -15t15.5 -7q5 0 7.5 -2t4 -5t2 -6.5t0.5 -5.5v-2v-290q0 -3 -1.5 -5.5t-3.5 -5t-4.5 -4t-4.5 -3t-4 -2.5t-3 -2h-2h-46
q-13 0 -19 -8t-0.5 -16.5t18.5 -8.5h13h15h13h10h3q14 0 25 5.5t17.5 15.5t6.5 22v323q0 6 -2 10.5t-5.5 6.5t-7 3.5t-5.5 1.5h-2zM642 522q-2 -6 -5 -10t-6 -6t-5.5 -3.5t-4.5 -2.5h-1h-172q-5 0 -11.5 5.5t-10.5 10.5l-3 6q-2 15 -3.5 38.5t2 67.5t16.5 55q6 5 28 25
t40 35t37 27q10 6 18 9.5t13.5 4t10.5 -0.5t7 -3l5 -5l3 -3l1 -2q2 -5 4.5 -12t7.5 -22l7 -21q1 -9 5 -32.5t10 -61.5t7.5 -62.5t-0.5 -36.5zM624 522z" />
    <glyph glyph-name="uniE60F" unicode="&#xe60f;" 
d="M998 -32q1 -17 -3 -26q-23 -10 -49 -17t-53 -11t-54 -6t-52 -3q-62 -4 -123 -4q-62 0 -123 2q-9 1 -17 1.5t-13 1.5q-12 2 -23 17q-4 5 -8 10.5t-8 10.5t-7.5 10t-6.5 11q-17 26 -30 54l-28 57q-5 10 -11 21.5t-13 24.5l-16 28q-7 13 -15 27.5t-16 28t-16 25.5
q-5 9 -10 16.5t-10 14t-10 12.5q-5 7 -12 7q-4 0 -7.5 -0.5t-7.5 -1.5l-16 -4q-3 -2 -34.5 0t-36.5 3q-3 -6 -3.5 -57.5t0.5 -108.5t2 -112t1 -58q-1 -2 -0.5 -5.5t0.5 -4.5q-6 -2 -12 -2h-12q-6 0 -17.5 -1.5t-16.5 1.5q-1 7 0 14v6v8q-5 56 -10 115q-4 59 -12 117
q-2 19 -5 38l-8 38q-3 19 -7 38q-13 56 -34 108q-12 35 -8.5 71.5t17 70.5t34 64.5t42.5 56.5q95 -89 186 -181t182 -186q21 -21 40 -42q4 -4 8 -8.5t8 -8.5l8 -8q4 -4 8.5 -8t8.5 -8q22 -19 46 -35t53 -25q13 -5 26.5 -7t27.5 -2q2 0 40 9t79 17t50 5q14 -4 60 -105.5
t47 -113.5zM923 82z" />
    <glyph glyph-name="uniE610" unicode="&#xe610;" 
d="M740 391zM705 391q0 14 10 24t24.5 10t24.5 -10t10 -24q0 -9 -4.5 -17t-12.5 -12.5t-17 -4.5q-15 0 -25 10t-10 24zM671 323zM637 323q0 14 10 24t24 10t24 -10t10 -24t-10 -24t-24 -10q-3 0 -6 0.5t-5.5 1.5t-5 2.5t-5 3.5t-4.5 4t-3.5 4.5t-2.5 5.5t-1.5 6t-0.5 6z
M603 391zM569 391q0 14 10 24t24 10q7 0 13.5 -2.5t11 -7t7 -11t2.5 -13.5q0 -9 -4.5 -17t-12.5 -12.5t-17 -4.5q-14 0 -24 10t-10 24zM848 665q-21 10 -37 11q2 -1 4 -1h-587q-57 0 -97 -40t-40 -96v-478q0 -56 40 -96t96.5 -40t96.5 40t40 96v23v23h296v-23v-23
q0 -56 40 -96t96.5 -40t96.5 40t40 96v478q0 15 -3 30.5t-11 35.5t-26.5 36.5t-44.5 23.5zM887 61q0 -38 -26.5 -64.5t-64 -26.5t-64.5 26.5t-27 64.5v23v23h23q10 0 16.5 6.5t6.5 15.5q0 5 -2 9t-5 7t-7 5t-9 2h-23h-2h-40h-3h-296h-3h-40h-2h-23q-10 0 -16.5 -6.5
t-6.5 -16.5q0 -4 2 -8.5t5 -7.5t7 -4.5t9 -1.5h23v-23v-23q0 -38 -27 -64.5t-64.5 -26.5t-64 26.5t-26.5 64.5v478q0 25 12 46t33 33t46 12h101h366h101q38 0 64.5 -26.5t26.5 -64.5v-478zM353 493q-43 0 -73 -30t-30 -72t30 -72t72.5 -30t72.5 30t30 72q0 28 -13.5 51.5
t-37 37t-51.5 13.5zM353 334q-24 0 -40.5 16.5t-16.5 40.5t16.5 40.5t40 16.5t40.5 -16.5t17 -40.5q0 -12 -4.5 -22.5t-12.5 -18t-18.5 -12t-21.5 -4.5zM671 459zM637 459q0 10 4.5 17.5t12.5 12t17 4.5q14 0 24 -10t10 -24t-10 -24t-24 -10q-7 0 -13 3t-10.5 7.5t-7.5 10.5
t-3 13z" />
    <glyph glyph-name="uniE611" unicode="&#xe611;" 
d="M693 165h51v-49h-51v49zM859 350l-221 53q-8 2 -16 1v186q6 5 10 11.5t5.5 14t0.5 14.5q-3 17 -17.5 24t-33.5 4l-421 -64q-43 -7 -37 -41q1 -8 5 -15t11 -12v-647q0 -11 8 -19t19 -8h672q7 0 13.5 4t10 10t3.5 13v405q8 5 13.5 12t7.5 15q4 17 -4.5 25.5t-28.5 13.5z
M575 360v-461h-152v143h-78v-143h-152v629l382 56v-224zM744 -101v77h-51v-77h-71v433l205 -42v-391h-83zM693 252h51v-48h-51v48zM693 77h51v-49h-51v49zM345 498h78v-82h-78v82zM345 350h78v-82h-78v82zM345 202h78v-82h-78v82zM345 202z" />
    <glyph glyph-name="uniE612" unicode="&#xe612;" 
d="M266 392q4 -1 8 -1q11 0 19.5 6t10.5 16q16 54 69 84.5t132 30.5q8 0 15.5 4t11.5 11.5t4 15.5q0 13 -9 22t-22 9q-67 0 -121 -19t-89.5 -55t-49.5 -86q-4 -12 2.5 -23.5t18.5 -14.5zM897 262q-6 8 -16 11q16 57 16 106q0 144 -105 231q-25 21 -55.5 37t-65 26.5
t-73.5 16t-81 5.5q-172 0 -276 -85q-34 -29 -57.5 -64.5t-35 -78t-11.5 -89.5q0 -48 16 -105q-10 -3 -16 -11q-10 -11 -6 -26l80 -344q3 -10 11 -17t19 -7h551q11 0 19.5 7t10.5 17l81 344q3 15 -6 26zM834 212l-66 -282h-40l32 282h74zM697 212l-32 -282h-50l18 282h64z
M425 212l18 -282h-66l-32 282h80zM517 634q48 0 92 -8.5t86 -28t72.5 -48t49 -72.5t18.5 -98q0 -14 -1 -26t-3.5 -24.5t-5.5 -25t-8 -29.5h-600q-18 61 -18 104q0 40 9.5 74t26.5 59.5t40.5 46t51.5 34.5t59.5 23.5t64 14t66.5 4.5zM282 212l32 -282h-48l-66 282h82z
M571 212l-19 -282h-47l-18 282h84z" />
    <glyph glyph-name="uniE613" unicode="&#xe613;" 
d="M640 356q56 -15 97 -56q63 -63 63 -150v-49h-110v49q0 13 -4 26.5t-10.5 25t-16.5 20.5q-4 4 -9 8t-10 7v-33h-221v199h41v29h40v46h-117q-10 0 -17.5 7t-7.5 18q0 10 7.5 17t17.5 7h117v22h54v-22h120q3 0 6 -0.5t5.5 -1.5t4.5 -3t3.5 -4t3 -4.5t2 -5.5t0.5 -5
q0 -11 -7 -18t-18 -7h-120v-46h48v-29h38v-47zM405 232v121q-17 -5 -33 -13t-30 -18t-26 -22q-63 -63 -63 -150v-49h110v49q0 42 30 72q2 1 3 2.5t2.5 2.5t3 2.5t3.5 2.5z" />
    <glyph glyph-name="uniE614" unicode="&#xe614;" 
d="M694 -7h-376q-14 0 -26.5 7t-19.5 19t-7 27v472q0 15 7 27t19.5 19t26.5 7h376q14 0 26 -7t19 -19t7 -27v-472q0 -34 -31 -48q-10 -5 -21 -5zM318 524q-2 0 -4 -1.5t-2 -4.5v-472q0 -6 6 -6h376q5 0 5 6v472q0 6 -5 6h-376zM405 128q-4 0 -7.5 2t-5.5 6t-2 8v278
q0 6 4.5 10.5t11 4.5t11 -4.5t4.5 -10.5v-278q0 -7 -4.5 -11.5t-11.5 -4.5zM510 128q-4 0 -7.5 2t-6 6t-2.5 8v278q0 6 4.5 10.5t11 4.5t11 -4.5t4.5 -10.5v-278q0 -7 -4.5 -11.5t-10.5 -4.5zM614 128q-6 0 -10.5 4.5t-4.5 10.5v278q0 7 4.5 11.5t10.5 4.5t10.5 -4.5
t4.5 -11.5v-278q0 -6 -4.5 -10.5t-10.5 -4.5zM443.5 535q-6.5 0 -11 4.5t-4.5 11.5v75q0 6 4.5 10.5t11 4.5t11 -4.5t4.5 -10.5v-75q0 -7 -4.5 -11.5t-11 -4.5zM578 535q-6 0 -10.5 4.5t-4.5 11.5v75q0 4 2 7.5t5.5 5.5t7.5 2q7 0 11.5 -4.5t4.5 -10.5v-75q0 -5 -2 -8.5
t-6 -5.5t-8 -2zM610 610h-199q-6 0 -12.5 2t-11.5 6t-8.5 9t-5.5 11t-2 13q0 17 11.5 29t28.5 12h199q17 0 29 -12t12 -29t-12 -29t-29 -12zM411 661q-8 -2 -10 -10q0 -3 1.5 -5t4 -3.5t4.5 -1.5h199q4 0 7 3t3 7t-3 7t-7 3h-199zM392 -68q-10 0 -16.5 7t-6.5 16v62
q0 9 6.5 16t16.5 7q6 0 11.5 -3t9 -8.5t3.5 -11.5v-62q0 -2 -1 -5t-2 -5t-2.5 -4t-3.5 -4t-4.5 -3t-5 -1.5t-5.5 -0.5zM631 -72q-6 0 -11.5 3t-9 8.5t-3.5 11.5v62q0 9 7 16t17 7q5 0 9.5 -2t7.5 -5t5 -7.5t2 -8.5v-62q0 -18 -18 -22q-3 -1 -6 -1z" />
    <glyph glyph-name="uniE615" unicode="&#xe615;" 
d="M512 -93q-3 0 -6.5 1t-6.5 2.5t-5 4.5l-382 450q-5 6 -5.5 13.5t3.5 14.5l156 233q3 5 8.5 8t10.5 3h454q12 0 19 -11l156 -233q4 -7 3.5 -14.5t-5.5 -13.5l-382 -450q-3 -4 -8 -6t-10 -2zM159 382l353 -416l353 416l-139 208h-428zM894 365h-764q-6 0 -10.5 4.5
t-4.5 10.5t4.5 10.5t10.5 4.5h764q6 0 10.5 -4.5t4.5 -10.5q0 -3 -1 -6t-3 -5t-5 -3t-6 -1zM497 376q-6 0 -11 5q-10 12 1 22l241 221q11 11 21.5 -0.5t-0.5 -21.5l-241 -222q-2 -2 -5 -3t-6 -1zM497 376q-3 0 -5.5 1.5t-5.5 3.5l-212 221q-10 12 1 22.5t22 -0.5l212 -222
q10 -11 -1 -21q-4 -5 -11 -5zM512 -85q-10 0 -14 9l-186 450q-2 6 0.5 12t8.5 8q3 1 6 1t5.5 -1t5 -3t3.5 -5l185 -450q3 -6 0.5 -12t-8.5 -8q-3 -1 -6 -1zM512 -85h-2t-3 1q-4 1 -6.5 4t-3.5 7t1 8l161 450q2 6 8 9t12 0.5t8.5 -8t0.5 -11.5l-162 -450q-3 -10 -14 -10z" />
    <glyph glyph-name="uniE616" unicode="&#xe616;" 
d="M964 291q0 19 -7 36t-20 30l-365 365q-26 27 -65.5 27t-66.5 -27l-132 -132q-27 -27 -27 -65.5t27 -66.5l364 -365q28 -27 66.5 -27t66.5 27l34 35l25 -26q5 -4 7.5 -10t2.5 -11.5t-2 -11t-6 -9.5l-93 -80q-9 -9 -22 -9t-22 9l-239 239l-3 3q-18 18 -42 24.5t-48 0
t-42 -24.5l-10 -9l-60 60q-4 4 -9.5 6.5t-12.5 2.5q-12 0 -22 -9l-22 -22l-132 -132q-27 -28 -27 -66.5t27 -66.5l110 -110q28 -27 66 -27q12 0 24 3t22.5 9t19.5 15l133 132v1l22 21q9 10 9 22.5t-9 21.5l-95 95l10 9q9 9 22 9t22 -9l3 -3l239 -239q13 -14 30.5 -21
t35.5 -7t34.5 6.5t29.5 19.5l93 80q28 27 28 66t-28 66l-25 25l54 54q13 13 20 30.5t7 35.5zM351 -14l-66 -66q-6 -6 -14 -8t-16 0t-14 8l-110 110q-9 10 -9 22.5t9 22.5l66 66l66 66l155 -155zM893 269l-133 -132q-8 -9 -21.5 -9t-21.5 9l-365 365q-9 9 -9 22t9 22l132 132
q5 5 10.5 7t11.5 2q13 0 22 -9l365 -365q9 -9 9 -22q0 -4 -1 -8t-3 -7.5t-5 -6.5zM529 630q-6 6 -14 8.5t-16 0.5t-14 -8q-9 -9 -9.5 -22t8.5 -22l314 -321q9 -9 22 -9t22 9t9.5 22t-8.5 22zM529 630z" />
    <glyph glyph-name="uniE617" unicode="&#xe617;" 
d="M764 -157h-501v569h43v-526h415v528h194l39 176l-231 116q-5 -12 -12 -23.5t-18.5 -25.5t-28 -26t-37.5 -22t-50.5 -15.5t-63.5 -5.5v43q44 0 78.5 11t52 25t29 32.5t14 26.5t3.5 13l4 29l310 -155l-55 -242h-185v-528zM306 371h-231l-54 242l309 155l4 -29q1 -5 4 -13
t15 -26.5t29.5 -32.5t52 -25t78.5 -11v-43q-50 0 -89.5 12t-63.5 32t-37.5 37.5t-21.5 36.5l-231 -116l39 -176h197v-43zM740 392z" />
    <glyph glyph-name="uniE618" unicode="&#xe618;" 
d="M881 -148q-29 -2 -88.5 11t-90.5 12q-25 -2 -49.5 -18.5t-50.5 -32.5t-56 -17q-56 -1 -122.5 13.5t-79.5 31.5q-1 3 -2 8t0.5 11t6 9.5t15 2.5t25.5 -8l7 -3q6 -2 19 -5.5t28.5 -7t37 -5.5t42.5 -2q33 1 57.5 14.5t49 30.5t50.5 22q36 8 95.5 -8t83.5 -14q13 1 25.5 7.5
t19.5 13.5t14 15t8 9q-3 42 -21 86t-40 76.5t-48.5 62t-43 44t-26.5 22.5q-1 1 -17.5 11.5t-29 19.5t-30.5 27.5t-30 39.5q-23 -12 -64.5 -21.5t-74.5 -9.5q-66 1 -130 29q-11 -23 -31 -42.5t-63 -53.5q-22 -17 -49.5 -47t-57.5 -69.5t-51 -86.5t-22 -86q1 -6 8.5 -13.5
t22.5 -12.5t37 1q14 -3 19 -13.5t-1 -19.5t-18 -11q-44 -7 -78 10t-34 34q0 46 13.5 92t30.5 78t45 67.5t43 51.5t38 38l9 9q9 10 27 24.5t31 26t26.5 27t20.5 35.5t7 44q0 27 -22.5 92.5t-44.5 135t-22 108.5l9 2q8 3 21.5 7t30.5 8.5t33.5 9.5t30.5 9t22 6l9 3q2 -3 8 -14
t8 -14.5t7.5 -13t9 -13.5t9.5 -11t11 -10l10 -7q6 -4 13 -5.5t14 -1.5q9 0 17 2t16 8.5t13.5 10.5t13.5 15.5t11 16t12 19t12 18.5q151 -44 151 -45q0 -47 -22.5 -117.5t-44.5 -132t-22 -86.5q0 -13 3 -25t8.5 -22t12.5 -19.5t16 -18.5t18 -16.5t20 -15.5t20 -14t19 -13
t17 -13q12 -10 25 -21t31 -30.5t34 -40t33 -49t29 -57.5t19.5 -65t7.5 -73q0 -8 -8 -19t-20.5 -21t-29 -18t-32.5 -9zM702 725q0 1 -8.5 3.5t-21.5 5.5l-24 6q-13 3 -23.5 5t-11.5 3q-11 -21 -18.5 -34t-21 -27.5t-31.5 -21.5t-41 -7q-20 0 -36.5 6t-26.5 13t-20.5 21.5
t-15.5 23.5t-13 26q-2 2 -24 -3.5t-43.5 -12t-22.5 -7.5q0 -19 22.5 -87t45 -131.5t22.5 -72.5t-0.5 -18t-1 -17t-1.5 -15.5t-2 -14.5l2 -1l3 -1q7 -3 13.5 -5.5t14 -5t16 -4.5t19 -3.5t22.5 -2.5t27 -1q66 -2 112 22q4 3 9 4q-1 5 -2.5 11t-3 12.5t-2.5 13.5v12q-1 7 -1 14
q0 8 44.5 136t44.5 155zM702 725z" />
    <glyph glyph-name="uniE619" unicode="&#xe619;" 
d="M511 648q-57 0 -110 -17.5t-95.5 -50t-75 -75t-50 -95.5t-17.5 -110q0 -88 41 -164q1 -2 1 -3q46 -82 127.5 -131.5t178.5 -49.5q93 0 174 47t127 128q46 80 46 173q0 94 -46.5 174.5t-126.5 127t-174 46.5zM645 582q-72 -41 -112 -103q-51 -77 -42 -174
q-52 -29 -110 -36q-1 0 -2 -1h-1q-11 40 -11 81q0 38 11.5 74.5t33.5 70.5t44.5 60.5t54.5 57.5q71 0 134 -30zM366 225q6 1 11 1.5t9 0.5q68 9 127 43q24 -15 45.5 -34t38.5 -42q-87 -75 -201 -75q-92 0 -169 50q-18 40 -25 84q66 -29 138 -29q13 0 26 1zM513 294zM451 607
q-37 -40 -62 -75t-44.5 -84t-19.5 -99q1 -42 10 -83q-73 1 -137 34q0 75 33.5 140.5t91 109t128.5 57.5zM270 101q61 -23 126 -23q127 0 225 81q35 -62 40 -133q-70 -38 -150 -38q-48 0 -92.5 14t-82 39t-66.5 60zM700 52q-10 76 -50 139q-22 36 -52 65t-66 51
q-1 10 -1 20.5t1 20.5t2.5 20t3.5 19.5t5.5 19t7.5 18.5q26 -9 51 -22t47.5 -30t41.5 -38q15 -17 27.5 -35.5t22.5 -39.5t17 -42.5t10.5 -44t3.5 -44.5q-15 -22 -33 -41.5t-39 -35.5zM805 194q-9 47 -30.5 90.5t-52.5 78.5q-31 34 -69 59t-81 40q40 59 116 95
q62 -43 98.5 -110.5t36.5 -146.5q0 -55 -18 -106z" />
    <glyph glyph-name="uniE61A" unicode="&#xe61a;" 
d="M981 726v-522q0 -47 -23.5 -93.5t-61.5 -90t-86.5 -82.5t-99 -69.5t-98 -51t-82.5 -27.5l-11 -2l-11 2q-36 7 -84.5 27.5t-100.5 51t-102.5 69.5t-89.5 82.5t-63.5 90t-24.5 93.5v522l38 5l432 81l440 -81zM513 697l-5 1l-337 -57v-299h342v355zM853 342h-340v-426
q33 7 71.5 22.5t76 36.5t72 47t61.5 55.5t43 61.5t16 65v138z" />
    <glyph glyph-name="uniE61B" unicode="&#xe61b;" 
d="M512 812q106 0 199 -40.5t162.5 -110t110 -162.5t40.5 -199.5t-40.5 -199t-110 -162t-162.5 -110t-199 -40.5t-199 40.5t-162.5 110t-110 162t-40.5 199t40.5 199.5t110 162.5t162.5 110t199 40.5zM545 -54q28 0 48 20t20 48q0 29 -20 49.5t-48 20.5t-48.5 -20.5
t-20.5 -49.5q0 -28 20.5 -48t48.5 -20zM611 224q0 14 19 32.5t42.5 45.5t42.5 63.5t19 86.5q0 32 -12.5 68t-40 66t-71.5 49t-106 19q-47 0 -82 -11.5t-58.5 -31t-38.5 -43.5t-22.5 -49.5t-10 -49t-2.5 -41.5q0 -24 20.5 -34.5t45 -8.5t45 14.5t20.5 34.5q0 13 2 30t10 31.5
t25 24t48 9.5q48 0 76.5 -26.5t28.5 -63.5q0 -19 -9 -38t-23 -36.5t-31 -33t-31 -28.5t-23.5 -23.5t-9.5 -17.5v-74q0 -10 19.5 -14.5t43.5 -4t44 5.5t20 17v32z" />
    <glyph glyph-name="uniE61C" unicode="&#xe61c;" 
d="M716.5 438q62.5 0 118.5 -23.5t98 -64.5t66.5 -95.5t24.5 -116t-24.5 -117t-66.5 -97t-98 -65.5t-118.5 -24t-116.5 24t-94 65.5t-63 97t-23 117t23 116t63 95.5t94 64.5t116.5 23.5zM886 171h-94l92 89l-46 46l-106 -99l34 -36h-111l33 44l-97 94l-39 -52l88 -86h-80
v-57h138v-45h-138v-50h138v-92h53v92h135v50h-135v45h135v57zM896 719q27 0 50.5 -10.5t41 -27.5t27 -40.5t9.5 -49.5v-152h-140q0 27 -12.5 38t-38.5 11h-626q-27 0 -47 -18t-20 -45v-385q0 -27 20 -46t47 -19h213v-140h-291q-27 0 -50.5 12t-41 32t-27.5 45t-10 51v616
q0 26 10 49.5t27.5 40.5t41 27.5t50.5 10.5h767z" />
    <glyph glyph-name="uniE61D" unicode="&#xe61d;" horiz-adv-x="1000" 
d="M221 282h222v-426h-426v378q-19 358 359 542l96 -145q-242 -126 -251 -349zM763 282h223v-426h-426v378q-20 358 358 542l97 -145q-252 -136 -252 -349z" />
    <glyph glyph-name="uniE61E" unicode="&#xe61e;" horiz-adv-x="1000" 
d="M810 350h-222v426h426v-378q19 -358 -359 -542l-96 145q242 126 251 349zM268 350h-223v426h426v-378q20 -358 -358 -542l-97 145q252 136 252 349z" />
    <glyph glyph-name="uniE61F" unicode="&#xe61f;" horiz-adv-x="1000" 
d="M577 50h20v-4h-20v4zM664 71h5v-16h-5v16zM438 63h-15v-1q3 -3 7 -6q5 3 8 7zM448 70h-36v-36h36v36zM440 35q-11 3 -23 4l1 4l12 -2q6 -1 11 -2zM422 46l1 3q7 -1 15 -2l-1 -4q-8 2 -15 3zM445 48q-5 1 -8.5 2.5t-6.5 2.5q-6 -3 -16 -5v1l-2 2q9 2 15 4q-4 2 -6 5
q-3 -2 -5 -4q-1 1 -3 2q4 3 6.5 6t4.5 6l4 -2q-1 0 -2 -1v-1h17v-3q-4 -5 -9 -8q5 -2 12 -3q-1 -2 -1 -4zM679 71h5v-16h-5v16zM577 43h20v-3h-20v3zM821 545q-27 21 -58.5 38t-71.5 30.5t-65 21t-73 19.5q-10 3 -28.5 7.5t-26 6t-20.5 5.5t-20 6.5t-17.5 6.5t-19.5 9
t-19 12q-31 19 -74 39t-48 14q-4 -3 0.5 -12.5t13.5 -25.5t13 -29q11 -35 2 -63.5t-37 -50.5q-203 -154 -194 -343q2 -37 10.5 -71t23.5 -64.5t35 -58t45.5 -50.5t54.5 -42.5t63 -33.5t70 -23t75.5 -12.5t79.5 -0.5q122 8 216 60t146.5 139t54.5 195q5 160 -131 271z
M531 241l38 39l41 42q3 2 2 3.5t-4 2.5q-2 0 -14.5 2.5t-36.5 7.5l-47 10q0 8 0.5 15.5t1 14.5t2 13.5t3.5 12t4 10t4.5 8.5t5.5 7.5t6.5 6t7 4t7.5 1.5q10 1 20.5 -3.5t20 -14.5t18 -25.5t15 -36t9.5 -45.5q5 -36 0.5 -65.5t-17 -48.5t-28.5 -20q-35 -4 -59 59zM839 228
q-10 -3 -19.5 4.5t-16.5 22t-14 34.5q4 4 12 11t13 12t10 9q19 16 38 35q2 2 1.5 3.5t-3.5 2.5q-7 0 -44 7q-7 1 -22 4t-18 4q0 24 4 45t13.5 35.5t22.5 16.5q7 1 13.5 -1.5t12 -8t11 -14t10 -19t8.5 -22.5t6.5 -25.5t4.5 -27.5q5 -56 -8 -89.5t-35 -38.5z" />
    <glyph glyph-name="uniE620" unicode="&#xe620;" 
d="M511 583l-413 -399h234l-2 -327h361v328l240 3zM67 746h889v-131h-889v131z" />
    <glyph glyph-name="uniE621" unicode="&#xe621;" 
d="M823 648v-15q0 -4 -3.5 -6.5t-9.5 -2.5h-27q-13 0 -13 9v15q-16 -1 -27 -9.5t-11 -19.5v-44v-5l-2 -6q0 -2 -1 -4t-2.5 -4t-3.5 -3t-4.5 -2t-5 -1.5t-6.5 -0.5h-386q-29 0 -29 29v41q0 11 -11 19.5t-27 9.5v-16q0 -8 -13 -8h-27q-3 0 -5.5 0.5t-4 1.5t-2.5 3t-1 3v16
q-6 0 -11 -1.5t-9 -3.5t-7.5 -4.5t-6 -5.5t-4 -6.5t-1.5 -7.5v-641q0 -8 5 -14t14 -10t20 -5v16q0 9 13 9h27q13 0 13 -9v-16q8 0 15 2.5t12 6.5t8 9t3 11v0v0v0v0v1v0v1v0v1v1v1v1v1v1v1v1v1v1v1v10q0 18 6.5 25.5t22.5 7.5h388q13 0 18 -7.5t5 -22.5v-27q0 -3 1.5 -6.5
t4 -6.5t6 -6t7.5 -4.5t9 -3t10 -1.5v16q0 9 13 9h27q4 0 7 -1.5t4.5 -3.5t1.5 -4v-16q5 0 9.5 1t8 2.5t7 3.5t6 4.5t4.5 5t3 5.5t1 6v642q0 8 -5 14t-14 10t-20 5zM256 77q0 -3 -2 -6.5t-5 -5.5t-7 -2h-30q-2 0 -5 1.5t-4.5 3t-3 4.5t-1.5 5v30q0 6 4.5 10t9.5 4h30
q3 0 5.5 -1t4.5 -3t3 -4.5t1 -5.5v-30zM256 214q0 -4 -2 -7.5t-5 -5.5t-7 -2h-30q-2 0 -5 1.5t-4.5 3.5t-3 4.5t-1.5 5.5v29q0 6 4.5 10t9.5 4h30q4 0 7 -1.5t5 -5t2 -7.5v-29zM256 350q0 -4 -2 -7.5t-5 -5t-7 -1.5h-30q-3 0 -6.5 1.5t-5.5 5t-2 7.5v29q0 6 4.5 10.5
t9.5 4.5h30q6 0 10 -4.5t4 -10.5v-29zM256 486q0 -3 -1 -5.5t-3 -4.5t-4.5 -3t-5.5 -1h-30q-12 1 -14 14v30q0 2 0.5 3.5t1.5 3t2.5 3t3 2.5t3.5 1.5t3 0.5h30q6 0 10 -4t4 -10v-30zM324 107q-32 0 -32 33v298v38h411q12 0 18.5 -3.5t8.5 -10t2 -18.5v-311q0 -6 -1 -10.5
t-3.5 -8t-6.5 -5.5t-11 -2h-386zM826 77q-2 -12 -14 -14h-30q-6 0 -10 4.5t-4 9.5v30q0 3 1 5.5t3 4.5t4.5 3t5.5 1h30q3 0 6.5 -2t5.5 -5t2 -7v-30zM826 214q0 -6 -4.5 -10.5t-9.5 -4.5h-30q-6 0 -10 4.5t-4 10.5v29q0 6 4 10t10 4h30q3 0 6.5 -1.5t5.5 -5t2 -7.5v-29z
M826 350q0 -2 -1 -4.5t-2 -4t-3 -3t-4 -2t-4 -0.5h-30q-3 0 -5.5 1t-4.5 3t-3 4.5t-1 5.5v29q0 6 4 10.5t10 4.5h30q5 0 9.5 -4.5t4.5 -10.5v-29zM826 486q0 -6 -4.5 -10t-9.5 -4h-30q-6 0 -10 4t-4 10v30q0 14 14 14h30q5 0 9.5 -4t4.5 -10v-30z" />
    <glyph glyph-name="uniE622" unicode="&#xe622;" 
d="M844 575l-58 58l-275 -276l-274 275l-58 -58l275 -275l-275 -275l58 -59l275 276l274 -275l58 59l-275 274z" />
    <glyph glyph-name="uniE623" unicode="&#xe623;" 
d="M648 208q0 -58 -39.5 -98.5t-96 -40.5t-96.5 40.5t-40 98.5t40 99t96.5 41t96 -41t39.5 -99zM857 582h-507v1v30q0 15 -10 25t-24 10h-110q-14 0 -24 -10t-10 -25v-30v-1h-5q-28 0 -48.5 -20.5t-20.5 -49.5v-493q0 -29 20.5 -49.5t48.5 -20.5h690q28 0 48.5 20.5
t20.5 49.5v493q0 19 -9.5 35t-25 25.5t-34.5 9.5zM345 502q8 0 15 -4.5t11.5 -11.5t4.5 -16q0 -13 -9 -22.5t-22 -9.5t-22 9.5t-9 22.5t9 22.5t22 9.5zM512 11q-80 0 -136.5 58t-56.5 139.5t56.5 139.5t136.5 58t136.5 -58t56.5 -140q0 -92 -70 -151q-54 -46 -123 -46z
M844 444h-195q-14 0 -24 8t-10 19t10 19t24 8h195q14 0 24 -8t10 -19t-10 -19t-24 -8z" />
    <glyph glyph-name="uniE624" unicode="&#xe624;" 
d="M855 667h-687q-37 0 -75.5 -24.5t-38.5 -55.5v-16q15 -13 41.5 -34.5t97 -76.5t128.5 -97t114.5 -76.5t75.5 -34.5q32 0 148.5 81t209.5 155t100 82v17q0 9 -3.5 18t-10.5 16.5t-16 15t-20 12.5t-22 9t-21.5 6.5t-20.5 2.5zM54 442v-452q42 -56 114 -56h687q19 0 38 6
t32 14t23.5 16.5t15.5 13.5l5 6v454q-13 -12 -35.5 -31.5t-86 -68.5t-119 -87t-117.5 -69t-100 -31q-36 0 -96.5 29.5t-121.5 71.5t-115.5 83.5t-89.5 71t-34 29.5z" />
    <glyph glyph-name="uniE625" unicode="&#xe625;" 
d="M764 332l-1 1l-318 298l-56 -61l258 -242l-240 -261l61 -56l295 320z" />
    <glyph glyph-name="uniE626" unicode="&#xe626;" 
d="M152 688h305q9 0 14.5 -6t7.5 -18.5t2.5 -20.5t0 -25.5t-0.5 -22.5v-169q0 -6 0.5 -21.5t0 -24t-1.5 -19.5t-5.5 -17.5t-11.5 -9.5q-5 -2 -16 -3t-21 -0.5t-23 1t-18 0.5h-162q-7 0 -19.5 -0.5t-20.5 -0.5t-19 1t-17.5 3.5t-11.5 7.5t-6 13v309q6 18 23 23zM194 619v-220
h220v223h-219q-1 0 -1 -3zM562 688h305q6 -2 11 -5.5t8 -9t4 -12.5v-301q0 -4 -1.5 -7.5t-3.5 -6.5t-4 -5.5t-5.5 -4.5t-6.5 -3q-9 -2 -22 -2.5t-30.5 0.5t-24.5 1h-157q-7 0 -24.5 -1t-31 -1t-21.5 3t-12.5 9.5t-6.5 19t-2 21.5t0.5 25.5t0.5 22.5v158v24q-3 58 11 70
q6 4 13 5zM604 619v-220h220v223h-219q-2 0 -1 -3zM294 554q12 2 22 0t17.5 -8t12 -15t4.5 -20q0 -27 -22 -40t-45 -2q-7 4 -12 10t-7.5 13.5t-3.5 15.5t1.5 15.5t6.5 13.5t11 11t15 6zM704 554q39 8 51 -26q10 -30 -10 -51q-16 -16 -41 -12q-22 4 -30.5 24t0 40.5
t30.5 24.5zM455 -84h-302q-9 3 -15.5 9t-8.5 16v308q6 19 20 23q9 2 22 2.5t30.5 -0.5t24.5 -1h156q7 0 24.5 1t31 0.5t22.5 -2.5q8 -3 13 -9.5t6.5 -18.5t2 -21t0 -25.5t-0.5 -23.5v-162q0 -6 0.5 -24.5t0 -26.5t-2.5 -20t-8 -18t-16 -7zM194 203v-220h220v223h-219
q-1 0 -1 -3zM890 245v-86q-1 -7 -0.5 -46t-0.5 -47h-218v50q-5 2 -33 1.5t-34 -0.5q-2 -17 -1.5 -99.5t0.5 -101.5h-40q-10 2 -16 8.5t-8 18.5t-2 21.5t0.5 27t0.5 24.5v158q0 7 -1 25.5t-0.5 32t2.5 21.5q2 5 4.5 8.5t7 5.5t8 3.5t11 2t11.5 0.5h13h13h148v-136h69
q0 12 -0.5 68.5t1.5 67.5q12 1 23.5 0.5t20.5 -3t15 -8.5t6 -17zM300 140q25 2 40.5 -17.5t6.5 -45.5q-9 -23 -33.5 -27t-42.5 12.5t-10.5 45t39.5 32.5zM745 -84h-74v41q0 33 1 39h73v-80zM890 -4v-52q-4 -21 -24 -28h-52q0 8 -0.5 41t1.5 39h75z" />
    <glyph glyph-name="uniE627" unicode="&#xe627;" 
d="M903 747l-559 -126q-1 0 -2.5 -0.5t-5.5 -2t-8 -3.5t-9 -5.5t-8.5 -7.5t-6 -10t-2.5 -13v-568q-33 10 -69 10q-64 0 -109 -24.5t-45 -59.5t45 -59.5t108.5 -24.5t108.5 24.5t45 59.5v445l475 104v-349q-33 9 -70 9q-41 0 -76.5 -11t-56 -30.5t-20.5 -42t20.5 -42
t56 -30.5t76.5 -11q64 0 109 24.5t45 58.5v643q0 17 -12 29.5t-30 12.5v0zM903 747z" />
    <glyph glyph-name="uniE628" unicode="&#xe628;" 
d="M604 53q0 -58 41.5 -99.5t100 -41.5t99.5 41.5t41 99.5q0 39 -19 71.5t-51.5 51t-70.5 18.5q-19 0 -37.5 -5t-33.5 -14t-28 -22t-22.5 -28.5t-14.5 -34t-5 -37.5zM135 125.5q0 -48.5 34 -83t83 -34.5q14 0 27 3t24.5 9t22 14t18.5 18t13.5 21.5t8.5 25t3 26.5
q0 49 -34 83.5t-83 34.5t-83 -34.5t-34 -83zM792 454v-404h94v404h-94zM276 501v-386h93v386h-93zM276 571v-93q0 -39 27.5 -66.5t65.5 -27.5l423 -47q39 0 66.5 27.5t27.5 66.5v93q0 26 -12.5 47.5t-34 34t-47.5 12.5l-423 47q-38 0 -65.5 -27.5t-27.5 -66.5zM369 571
l423 -47v-93l-423 47v93z" />
    <glyph glyph-name="uniE629" unicode="&#xe629;" 
d="M1013 -158l-247 246q0 1 -3 2q-1 1 -2 1q102 121 102 278q0 117 -58 216.5t-157 157t-216.5 57.5t-216.5 -57.5t-157 -157t-58 -216.5t58 -216.5t157 -157t216 -57.5q157 0 277 100q1 0 2 -2t2 -3l246 -246q11 -11 27 -11t27.5 11.5t11.5 27.5t-11 27zM431 18
q-47 0 -92.5 13t-84 35.5t-70.5 54.5t-55 70.5t-35.5 84t-12.5 93.5q0 95 47 175.5t127.5 127.5t176 47t176 -47t127.5 -127.5t47 -175.5q0 -72 -28 -136.5t-75 -111.5t-111.5 -75t-136.5 -28z" />
    <glyph glyph-name="uniE62A" unicode="&#xe62a;" 
d="M687 89h66q57 0 88.5 32t31.5 89v482q0 37 -14 64t-41 41.5t-65 14.5h-482q-57 0 -88.5 -32t-31.5 -88v-482q0 -57 31.5 -89t88.5 -32h66l-307 -301h138h688h138zM718 -42h-412l24 35h364zM352 26l43 63h234l43 -63h-320zM701 126q-21 0 -36 15.5t-15 37.5t15 37.5
t36 15.5q14 0 26 -7t19 -19.5t7 -26.5q0 -11 -4 -20.5t-11 -17t-16.5 -11.5t-20.5 -4zM374 743h276q7 0 13 -2.5t11 -7t7.5 -11t2.5 -13.5q0 -14 -10 -24t-24 -10h-276q-9 0 -17 4.5t-12.5 12.5t-4.5 17q0 14 10 24t24 10zM271 571q0 19 7 32.5t20.5 20.5t32.5 7h362
q28 0 44 -16t16 -44v-120q0 -29 -16 -45t-44 -16h-362q-19 0 -32.5 7.5t-20.5 21t-7 32.5v120zM322.5 126q-21.5 0 -36.5 15.5t-15 37.5t15 37.5t36.5 15.5t36.5 -15.5t15 -37.5t-15 -37.5t-36.5 -15.5zM284 -75h456l25 -36h-506zM213 -179l24 35h550l24 -35h-598z" />
    <glyph glyph-name="uniE62B" unicode="&#xe62b;" 
d="M592 -207l-537 506l536 508l34 -35l-500 -473l499 -471z" />
    <glyph glyph-name="uniE62C" unicode="&#xe62c;" 
d="M835 166l118 192h-82q-9 58 -33 110t-61.5 94t-84.5 73t-103 48t-116 17q-109 0 -202 -53.5t-146.5 -145.5t-53.5 -201t53.5 -201t146.5 -145.5t202 -53.5q102 0 190 47.5t143 128.5l-63 33q-18 -25 -40.5 -46.5t-48.5 -38.5t-55 -29t-61 -18t-65 -6q-90 0 -166.5 44
t-120.5 120t-44 165q0 67 26 128t70.5 105t105.5 70t129 26q80 0 150 -35.5t116 -97t60 -138.5h-82zM835 166z" />
    <glyph glyph-name="uniE62D" unicode="&#xe62d;" horiz-adv-x="1403" 
d="M1135 -13q26 29 41.5 67.5t15.5 78.5q0 83 -47 141q-9 11 -19.5 21t-22 17.5t-24 13.5t-26.5 10.5t-28 6.5l-18 1l-15 2q-11 2 -18.5 5.5t-11.5 8.5t-4 13q0 23 46 72q48 52 152 106q44 23 44 57q0 22 -15 36q-7 8 -16.5 11.5t-21.5 3.5q-7 0 -15 -1t-16.5 -3t-17.5 -5.5
t-19 -7.5t-20.5 -9t-21.5 -11.5t-23 -13.5t-25 -16q-39 -26 -73.5 -55.5t-63.5 -63t-53 -70.5q-71 -112 -71 -220q0 -52 20 -103q3 -8 6.5 -16t7.5 -16t8.5 -15t9.5 -14t10 -13t11 -12q69 -77 168 -77q100 0 166 70v0zM588 -13q26 29 41.5 68.5t15.5 77.5q0 83 -45.5 141.5
t-119.5 68.5l-19 1l-13 2q-35 5 -35 27q0 23 45 72q47 50 152 106q22 12 32.5 26t10.5 31q0 22 -15 36q-7 8 -16.5 11.5t-20.5 3.5q-29 0 -68.5 -16.5t-89.5 -50.5q-13 -8 -25.5 -17t-24.5 -18.5t-23.5 -19.5t-22.5 -20.5t-21 -21t-19.5 -21.5t-18.5 -23t-17.5 -24
t-16.5 -24q-35 -56 -52.5 -111t-17.5 -109q0 -52 19.5 -103t52.5 -86q69 -77 167 -77q101 0 165 70v0z" />
    <glyph glyph-name="uniE62E" unicode="&#xe62e;" 
d="M506 259q102 0 174.5 71.5t72.5 172.5t-72.5 173t-174.5 72q-50 0 -96 -19.5t-79 -52.5t-52.5 -78t-19.5 -95q0 -101 72.5 -172.5t174.5 -71.5zM512 236q-71 0 -148 -27.5t-140 -72.5t-103.5 -109.5t-40.5 -132.5v-42h864v42q0 55 -26.5 108t-71 94.5t-100 73.5
t-116.5 49t-118 17z" />
    <glyph glyph-name="uniE62F" unicode="&#xe62f;" 
d="M502 440l37 -5q-1 0 -1 -2q-10 -34 -23 -34h175v-48h-95v-47h95v-24h-95v-96q0 3 8.5 6t20 7.5t16.5 8.5l-9 35l51 16l30 -73h2v215q0 61 -53 70.5t-159 -29.5zM511 747q-91 0 -173.5 -35.5t-142.5 -95.5t-95.5 -142.5t-35.5 -173.5t35.5 -174t95.5 -142.5t142.5 -95
t173.5 -35.5t174 35.5t142.5 95t95 142.5t35.5 174q0 61 -16 118.5t-45 106.5t-70 90.5t-90 70.5t-107 45t-119 16zM305.5 532q23.5 0 39.5 -14.5t16 -35.5q0 -14 -7.5 -25.5t-20 -18t-28.5 -6.5q-23 0 -39 14.5t-16 35.5t16 35.5t39.5 14.5zM352 232l-8 -21
q-2 -7 -6.5 -17.5t-9.5 -20.5t-17.5 -37t-27.5 -60l-85 53q94 86 114 125q4 9 5 17t-1 14t-5 11.5t-7 9t-7 6.5t-6 4l-2 1l-65 41l35 54q37 -27 49 -37.5t37 -34.5q18 -19 18.5 -46.5t-11.5 -61.5zM811.5 172.5q-3.5 -31.5 -17.5 -53.5t-32.5 -33t-43 -16t-44 -5t-40.5 3
t-28.5 4.5t-11.5 3.5l11 44l39 -10q59 -4 69 40l-51 -21l-11 41q-16 -13 -37.5 -23t-61 -18.5t-85.5 -7.5q-79 -2 -83 84q-1 23 3 43l3 8h75q0 -7 -1.5 -22.5t-1 -24.5t4.5 -15q5 -8 14 -12.5t19 -5.5v104h-119v24h53l-33 28q28 29 61 90q-17 -8 -36 -16q-9 -12 -19.5 -23.5
t-21.5 -23.5l-5 3q-6 3 -14 8l-16 8q-8 5 -14 9l-5 3q25 21 47 58.5t31 64.5l9 27l78 -21v-1v-2l-2 -2q0 -2 -1 -4t-2.5 -4.5t-2.5 -5.5l-4 -6q-1 -3 -3 -6.5t-4 -7.5q233 66 309 -15q18 -19 21 -39q1 -2 1.5 -6t2.5 -17t3 -28t2.5 -38t1.5 -46.5t-1.5 -55t-5 -63zM500 351
h-19q-7 -6 -14 -13.5t-13 -13.5l-10 -10l-7 -7l-3 -3h66v47zM713 151v-1h1zM434 304v-1v1zM500 176v-3q2 3 0 3z" />
    <glyph glyph-name="uniE630" unicode="&#xe630;" 
d="M882 191v265q0 30 -15 56.5t-40 41.5l-256 153q-13 8 -28.5 12.5t-30.5 4.5t-30 -4.5t-28 -12.5l-256 -153q-26 -15 -40.5 -41.5t-14.5 -56.5v-313q0 -20 6.5 -38.5t19 -34t29.5 -25.5l256 -153q27 -16 58 -16q16 0 31 4t28 12l258 153v1q11 6 11 18q0 9 -6.5 15t-15.5 6
q-5 0 -10 -3l-259 -154q-37 -22 -74 0l-255 154q-16 9 -25.5 25.5t-9.5 35.5v313q0 41 35 62l255 153q37 22 74 0l256 -153q35 -21 35 -62v-265q0 -4 1.5 -8t4.5 -7t7 -4.5t8 -1.5q9 0 15 6t6 15zM311 379v-99v-41v-97q0 -23 15 -39.5t37 -16.5h133h34h132q21 0 36 16.5
t15 39.5v97v41v99q0 21 -15 36.5t-36 15.5h-14q14 22 14 45q0 29 -20 48q-10 9 -22.5 14t-26.5 5q-39 0 -70 -29q-5 -4 -9 -9l-9 9q-31 29 -70 29q-30 0 -49 -19q-10 -9 -15.5 -21.5t-5.5 -26.5q0 -23 14 -45h-16q-14 0 -26 -7t-19 -19t-7 -26zM488 128h-125q-2 0 -3.5 1
t-3 3t-2 4.5t-0.5 5.5v96h134v-110zM552 483q5 5 12 9t14.5 6t14.5 2q13 0 20 -7q7 -6 7 -17q0 -4 -1.5 -9t-3.5 -9.5t-5.5 -9t-7.5 -8.5q-5 -4 -13 -9v1q0 8 -3 16t-9 13.5t-13.5 9t-16.5 3.5h-2h-1q5 6 8 9zM538 388h124q4 0 6.5 -2.5t2.5 -6.5v-98h-133v107zM538 238h133
v-96q0 -4 -1.5 -7t-3.5 -5t-4 -2h-124v110zM514 452q6 0 11 -3t7.5 -7.5t2.5 -10.5q0 -9 -6 -15t-15 -6q-6 0 -11 2.5t-7.5 7.5t-2.5 11q5 17 21 21zM415 493q2 2 4.5 3.5t5.5 2.5t5 1h5q10 0 21 -4.5t20 -12.5q3 -3 8 -9h-1h-2q-18 0 -30.5 -12.5t-12.5 -29.5v-1
q-7 5 -12 9q-18 17 -18 36q0 11 7 17zM488 388v-107h-134v98q1 8 9 9h125z" />
    <glyph glyph-name="uniE631" unicode="&#xe631;" 
d="M875 -212h-608q-9 0 -17 3.5t-14 9t-9 13.5t-3 17q0 18 12.5 30.5t30.5 12.5h608q5 0 5 4v840q-2 3 -5 4h-608q-4 -1 -5 -4v-756q0 -11 -5.5 -21t-15.5 -16t-22 -6q-17 0 -30 12.5t-13 30.5v756q0 37 26.5 63.5t64.5 26.5h608q19 0 35.5 -7t28.5 -19t19.5 -29t7.5 -35
v-840q0 -37 -26.5 -63.5t-64.5 -26.5zM526 391h-186q-9 0 -15.5 6.5t-6.5 15.5q0 3 1 5l2 6q1 2 3 4t4.5 3.5t5.5 2t6 0.5h186q4 0 8 -1.5t7 -4.5t4.5 -7t1.5 -8q0 -17 -16 -21q-3 0 -5 -1zM526 280h-186q-3 0 -5.5 0.5t-4.5 2t-4 2.5t-3.5 3t-2.5 4t-1.5 4.5t-0.5 5.5
t1 6.5t3 6t5 4.5t6 3t7 1h186q2 0 4.5 -0.5t4.5 -1.5t4 -2.5t3.5 -3.5t2.5 -4t1.5 -4.5t0.5 -4.5q0 -17 -16 -21q-3 -1 -5 -1zM526 169h-186q-9 0 -15.5 6.5t-6.5 15.5q0 3 1 5l2 6q1 2 3 4t4.5 3.5t5.5 2t6 0.5h186q9 0 15 -6t6 -15q0 -6 -2.5 -11t-7.5 -8t-11 -3zM526 58
h-186q-9 0 -15.5 6.5t-6.5 15t6.5 15t15.5 6.5h186q9 0 15 -6.5t6 -14.5q0 -6 -2.5 -11t-7.5 -8t-11 -3zM526 -53h-186q-9 0 -15.5 6.5t-6.5 15t6.5 15t15.5 6.5h186q9 0 15 -6.5t6 -15t-6 -15t-15 -6.5zM792 391h-187q-8 0 -14.5 6.5t-6.5 15.5q0 3 1 6.5t3 6t4.5 4.5t6 3
t6.5 1h187q9 0 15 -6t6 -15q0 -4 -1.5 -8t-4.5 -7t-7 -5t-8 -2zM792 280h-187q-2 0 -5 1t-5.5 2.5t-4.5 3.5t-3.5 4t-2 5t-0.5 6q0 9 6.5 15t14.5 6h187q4 0 8 -1.5t7 -4.5t4.5 -7t1.5 -8q0 -9 -6 -15.5t-15 -6.5zM792 169h-187q-8 0 -14.5 6.5t-6.5 15.5q0 6 3 10.5t8 7.5
t10 3h187q9 0 15 -6t6 -15q0 -5 -1.5 -9t-4.5 -6.5t-7 -4.5t-8 -2zM792 58h-187q-8 0 -14.5 6.5t-6.5 15t6.5 15t14.5 6.5h187q5 0 10 -3t8 -8t3 -10q0 -9 -6 -15.5t-15 -6.5zM792 -53h-187q-5 0 -10 3t-8 8t-3 10q0 9 6.5 15.5t14.5 6.5h187q9 0 15 -6.5t6 -15.5
q0 -5 -3 -10t-8 -8t-10 -3zM511 -212h-362q-38 0 -64.5 26.5t-26.5 63.5v709q0 47 21 68q16 15 36 18.5t63 3.5h24h1q17 0 30 -12.5t13 -30.5t-12.5 -30.5t-30.5 -12.5h-25h-12h-12h-10v-4v-709q0 -4 5 -4h362q17 0 30 -12.5t13 -30.5q0 -9 -3.5 -17t-9.5 -13.5t-14 -9
t-16 -3.5zM792 510h-450q-5 0 -10 3t-8 8t-3 11v117q0 9 6 15t15 6h450q5 0 10 -2.5t8 -7.5t3 -11v-117q0 -4 -1 -7t-3 -6t-4.5 -5t-6 -3t-6.5 -1zM364 553h406v74h-406v-74z" />
    <glyph glyph-name="uniE632" unicode="&#xe632;" 
d="M576 27h20v-4h-20v4zM664 48h5v-16h-5v16zM433 40h-15h-1q3 -4 8 -6zM443 48h-37v-37h37v37zM435 12q-11 3 -24 4l1 4q7 -1 13 -2l12 -2zM417 23l1 3h3h4l4 -2h4l-1 -4q-8 2 -15 3zM440 26q-9 2 -15 4q-6 -2 -16 -5q-1 2 -2 3q9 2 14 4l-6 6l-5 -5l-2 3q7 5 11 12l3 -2
q-1 -1 -2 -3h18v-3q-4 -4 -9 -8q5 -1 13 -3q-1 -2 -2 -3zM680 49h5v-17h-5v17zM576 20h20v-3h-20v3zM825 534q-36 29 -88 52t-86.5 33t-99.5 27q-10 2 -34 8t-30.5 7.5t-22.5 6.5t-23.5 8.5t-20 9.5t-24.5 14q-19 12 -46.5 26.5t-51.5 23.5t-27 5q-2 -2 -1.5 -6t2.5 -8.5
t5.5 -11t7.5 -13t7.5 -15t5.5 -16.5q12 -36 3 -64.5t-38 -51.5q-208 -158 -199 -352q6 -110 70 -196.5t169 -131t229 -36.5q189 12 306.5 123.5t121.5 280.5q1 54 -14 104t-45.5 93t-75.5 80zM383 46h4v-30h-4v30zM301 51h41v-4h-41v4zM297 11q5 7 11 17l3 -2q-5 -9 -11 -17
zM325 12q0 -7 -7 -7h-8v3v2h7q3 0 3 3v19h-24v4h50v-4h-21v-20zM343 10l-6 8l-6 8l3 2q7 -7 12 -16zM358 4h-4v30q-1 -2 -2 -4.5t-3 -4.5q0 2 -1 4q6 11 9 25l4 -1l-3 -11v-38zM382 47h-10l-2 -7h10v-4q-2 -20 -16 -32q-1 1 -1.5 2t-1.5 2q7 5 11 13q-3 3 -6 5l2 3
q1 -1 2.5 -2t2.5 -2l3 11h-7q-3 -9 -7 -15q-1 2 -3 4q6 8 9 22h-6v4h20v-4zM396 12q0 -4 -1.5 -5.5t-4.5 -1.5h-7v4h6h1q1 0 1 1q1 0 1 3v41h4v-42zM693 50h4v-34h-4v34zM471 51h27v-4h-27v4zM447 4h-4v3h-37v-3h-4v48h45v-48zM462 5h-3v27q-3 -9 -7 -14l-1 4q5 9 7 18h-7v4
h8v10h3v-10h7v-4h-7v-9l3 3q3 -3 5 -6l-2 -2q-3 2 -6 5v-26zM466 12q4 6 8 16l4 -2q-2 -4 -4.5 -8.5t-4.5 -7.5q-1 1 -3 2zM487 11q0 -6 -6 -6h-7q0 2 -1 4h3h4q3 0 3 4v19h-14v4h32v-4h-14v-21zM497 10q-3 8 -7 16l4 2q1 -3 2.5 -6t2.5 -5.5t3 -4.5zM526 4h-4l4 13h4z
M528 222l39 41l42 43q3 2 2.5 3.5t-4.5 2.5q-2 0 -15 2.5t-37 7.5l-48 10q-1 42 10.5 67.5t32.5 28.5q27 3 51.5 -31.5t33.5 -96.5q5 -37 0.5 -67t-17.5 -49.5t-30 -21.5t-32.5 14t-27.5 46zM567 45l-3 -3q-4 4 -7 8l3 2zM561 6l-2 3q1 2 1 5v19h-6v4h10v-24l6 4v-4
q-5 -4 -9 -7zM600 11q0 -6 -6 -6h-3h-4q0 1 -0.5 2t-0.5 2h4h3q2 1 3 2v3h-20v-9h-4v25h28v-19zM604 33h-37v3h17v4h-13v3h13v3h-15v4h15v4h4v-4h15v-4h-15v-3h14v-3h-14v-4h16v-3zM655 10q0 -2 -2 -4h-3h-3h-6q-7 -1 -6 6v15h-10q0 -3 -0.5 -5.5t-1.5 -4.5t-2 -3
q-3 -6 -13 -10q-1 2 -3 4q9 3 13 8q2 3 3 11h-14v4h22v10h-12l-6 -8q-2 1 -3 2q6 7 9 18l4 -2q-1 -3 -3 -6h11v9h4v-9h18v-4h-18v-10h22v-4h-16v-14q-1 -4 3 -4h5q2 0 3 1t1 2q1 2 1 7l4 -1q0 -4 -1 -8zM692 29h-4v-19q0 -5 -4 -5h-2h-2q0 2 -1 4l4 -1q2 0 2 3v18h-5v-5
q0 -13 -5 -20q-1 2 -2 3q4 6 4 17v5h-4v-18q0 -5 -5 -5h-1h-2q-1 2 -1 4h4q1 0 1 2v17h-5v-6q0 -11 -4 -19l-3 3q4 6 4 17v5h-4v3h4v20h12v-20h4v20h11v-20h4v-3zM705 11q0 -6 -5 -6h-7q0 2 -1 4h6q3 0 3 3v42h4v-43zM716 15q0 1 -0.5 2t-0.5 2q1 0 2 -0.5t2 -0.5q4 1 3 7
q-1 4 -5 9q1 3 2 6.5t2 7.5h-6v-44h-4v47h14v-3q-2 -8 -4 -14q4 -5 5 -9q1 -9 -5 -10q-2 -1 -5 0zM723 9q5 5 8 12l3 -2q-2 -3 -3.5 -6t-3.5 -6zM755 8q-5 6 -9 10l3 2q5 -4 9 -9zM757 33q-10 6 -16 15q-4 -7 -10 -12h21v-3h-9v-6h14v-4h-14v-12q0 -6 -5 -6h-2h-4q0 2 -1 4
h6q2 0 2 2v12h-12v4h12v6h-9v2q-2 -1 -4 -3q0 1 -0.5 2t-1.5 2q2 2 4.5 4t4.5 4t3.5 4t3.5 5h4l-1 -2q6 -9 16 -14zM844 209q-11 -2 -20.5 5.5t-17 22t-13.5 35.5q4 4 9.5 9t9 8.5t8.5 8t8 7.5q6 4 11.5 9.5t10 9t8.5 7.5t5.5 6t3.5 3q5 5 -2 7q-7 0 -45 7q-7 1 -22.5 4
t-18.5 4q0 25 4 46t14 36t23 18q23 4 42 -32.5t25 -89.5q3 -30 1 -53.5t-9 -39.5t-16 -25.5t-19 -12.5z" />
    <glyph glyph-name="uniE633" unicode="&#xe633;" 
d="M938 -102l-2 -6l-2 -5l-2 -4l-3 -3l-4 -2l-5 -2l-4 -2h-809l-5 2l-4 2l-5 2l-2 2l-2 5l-3 4l-2 7l-2 559h859zM93 732l-9 -2l-9 -2l-5 -2l-4 -3l-5 -2l-4 -2l-2 -2l-5 -3l-2 -2l-5 -2l-2 -2l-2 -3l-2 -2l-3 -2l-2 -3l-2 -2l-2 -2l-3 -2l-2 -3l-2 -4l-3 -2l-2 -3l-2 -4
l-2 -5l-3 -4l-2 -5l-2 -4l-2 -7l-3 -9v-762l3 -9l2 -4l2 -7l3 -2l2 -7l2 -2l2 -5l3 -4l2 -3l2 -2l2 -5l3 -2l2 -2l2 -2l2 -2l3 -3l2 -2l2 -2l5 -2l2 -3l2 -2l5 -2l4 -2l5 -3l4 -2l5 -2l4 -2l5 -3l9 -2h841l9 2l4 3l5 2l4 2l5 2l4 3l5 2l4 2l3 2l2 3l4 2l3 2l2 2l2 3l2 2l3 2
l2 2l2 2l2 5l3 2l2 3l2 4l2 5l3 4l2 4l2 3l2 7l3 4l2 9v762l-2 9l-3 7l-2 4l-2 5l-2 4l-2 5l-3 2l-2 5l-2 2l-3 4l-2 3l-2 2l-2 2l-3 2l-2 3l-2 2l-2 2l-3 3l-2 2l-4 2l-3 2l-4 3l-2 2l-5 2l-4 2l-5 3l-5 2l-9 2l-9 2l-11 3h-95l-2 -95l-2 -7l-3 -7l-2 -7l-2 -4l-2 -5l-3 -2
l-2 -2l-2 -3v-4h-5l-2 -2l-2 -3l-5 -2l-2 -2l-5 -2l-4 -3l-4 -2l-7 -2l-16 -2h-9l-14 2l-7 2l-6 3l-2 2l-5 2l-5 2l-2 3l-4 2l-3 2l-2 2l-2 5l-2 2l-2 2l-3 3l-2 6l-2 5l-3 4l-2 7l-2 14l-2 86h-317l-2 -86l-3 -14l-2 -7l-2 -4l-2 -5l-3 -6l-2 -3l-2 -2l-2 -2l-3 -5l-2 -2
l-2 -2l-5 -3l-2 -2l-4 -2l-5 -2l-2 -2l-7 -3l-7 -2l-13 -2h-9l-16 2l-7 2l-4 3l-5 2l-5 2l-2 2l-4 2l-3 3l-2 2h-4v5l-3 2l-2 2l-2 2l-2 5l-3 4l-2 7l-2 7l-2 7l-3 95h-95zM256 809l-5 -2l-2 -2l-2 -3l-2 -2l-3 -2l-2 -2l-2 -5l-3 -7v-142l3 -7l2 -4l2 -3l3 -2l2 -2l2 -2
l5 -3l4 -2l5 -2l6 -2h12l9 2l4 2l5 2l2 3l2 2l2 2l3 2l2 3l2 4l3 5l2 6v134l-2 7l-3 4l-2 5l-2 2l-3 2l-2 2l-2 3l-2 2l-5 2l-2 2h-32zM728 809l-4 -2l-3 -2l-2 -3l-2 -2l-2 -2l-3 -2l-2 -5l-2 -4l-2 -7v-134l2 -6l2 -5l2 -4l3 -3l2 -2l2 -2l2 -2l3 -3l4 -2l5 -2l9 -2h11
l7 2l4 2l5 2l4 3l3 2l2 2l2 2l2 3l3 4l2 7v142l-2 7l-3 5l-2 2l-2 2l-2 2l-3 3l-2 2l-4 2l-5 2h-32zM273 381v-81q10 -2 13 -10q1 -2 1.5 -4.5t0.5 -5t0.5 -5.5t0.5 -7v-215q0 -12 -3 -20q-1 -3 -3 -5t-4.5 -4t-5.5 -3v-81h170v81q-17 8 -17 32v328h-153zM632 223v28
q0 41 32 41q15 0 22 -11q7 -9 7 -24q0 -16 -8 -26q-4 -5 -17 -14l-30 -15l-41 -20l-20 -10l-6 -3q-4 -2 -11 -6q-10 -6 -17.5 -12t-14 -12t-11.5 -12.5t-8 -13.5q-15 -27 -15 -60v-113h328v138h-129q0 -5 -0.5 -9.5t-1.5 -9.5q-2 -8 -7 -14q-3 -5 -7.5 -8.5t-9.5 -4.5
q-10 -3 -26 -3h-13q0 12 3.5 21t11 16t18.5 12l40 18l42 21q23 11 31 17q29 19 44 50t15 65q0 7 -0.5 13t-1.5 12t-2.5 11.5t-2.5 11.5q-7 20 -21 39q-7 10 -15.5 17.5t-18.5 13.5l-7 3q-3 2 -6.5 3.5t-7.5 2.5q-5 2 -12.5 3t-17.5 2q-19 3 -32 3h-11h-8q-32 0 -63 -5
q-33 -4 -61 -15.5t-46 -26.5v-114h133z" />
    <glyph glyph-name="uniE634" unicode="&#xe634;" 
d="M130 454v61q0 1 0.5 2.5t1.5 5.5t2.5 8t4.5 9t7.5 8.5t11 6t14.5 2.5h682h4q3 0 10 -2.5t12 -6.5t9.5 -12.5t4.5 -19.5v-62h63v80q-2 1 0 9t-3 21t-12 25t-26 21t-45 9h-718l-29 -7q-54 -21 -55 -75v-83h61zM69 454h888v-371h-62l-2 288h-824v83zM69 371h62v-288
q0 -1 0.5 -4t2.5 -10t6 -12.5t12.5 -10t19.5 -4.5h681q1 0 4 -0.5t10.5 1t13 5t10 12.5t4.5 23h62v-42l-8 -25q-18 -36 -54 -37h-764q-7 0 -17 1t-27.5 17t-17.5 46v328zM482 289q-3 20 20 20h21l12 -3q7 -5 7 -17v-206q3 -20 -19 -20h-23q-2 0 -5 1t-8 5.5t-5 13.5v206z
M565 269v-186q0 -2 1 -5.5t6 -9t12 -5.5l22 1q1 0 5 -1t9 4t6 16v186h-61zM626 143h84q2 0 5.5 0.5t12.5 4t17 10t15 19.5t10 30h-144v-64zM710 269v-62h60q4 12 0 62h-60zM276 289q0 2 0.5 5.5t5 9t13.5 5.5h22q2 1 5.5 0.5t9.5 -6t6 -14.5l41 -144l41 144q0 2 1 5.5t6 9
t15 5.5h20q2 1 5.5 0.5t9 -5.5t5.5 -15l-63 -206v-1q0 -1 -1 -2.5t-2.5 -3.5t-4.5 -4.5t-7 -4t-10.5 -3t-14.5 -1.5q-27 -4 -41 20zM565 269h205q0 2 -1 6t-6.5 14.5t-13.5 18.5t-24 15t-37 7h-83h-3h-5l-8 -2q-4 0 -8.5 -1.5t-8 -3.5t-5.5 -5.5t-2 -8.5v-40zM565 269z" />
    <glyph glyph-name="uniE635" unicode="&#xe635;" 
d="M517.5 741q-91.5 0 -174.5 -35.5t-143 -95.5t-96 -143.5t-36 -174.5t36 -174.5t96 -143.5t143 -95.5t174.5 -35.5t175 35.5t143.5 95.5t95.5 143.5t35.5 174.5t-35.5 174.5t-95.5 143.5t-143.5 95.5t-175 35.5zM808 344q-79 -90 -194 -131q-29 -10 -39 13q-5 28 21 41
q112 49 171 115q7 8 14 11t13.5 1.5t13.5 -7.5q9 -10 9 -21t-9 -22zM614 457q43 16 77 39t58 53q18 20 39 7q6 -6 8 -12.5t0.5 -13.5t-6.5 -15q-59 -76 -156 -112q-28 -10 -38 15q-8 26 18 39zM583 477q-33 -79 -67 -123q-20 -20 -41 -7q-15 15 0 38q34 48 62 113
q4 10 12 13t21 -1q21 -10 13 -33zM276 564q12 0 25.5 0.5t27.5 0.5t28 1t29 1.5t30 1.5q77 8 121 18q6 1 11.5 0t9.5 -3.5t7 -7t5 -9.5q5 -26 -20 -31q-100 -21 -272 -23q-28 2 -31 23q0 26 29 28zM432 380q-21 -10 -28 13q-8 16 -21 43q-10 28 -13 39q-7 17 11 28
q20 7 33 -8q11 -27 19.5 -47.5t13.5 -34.5q4 -23 -15 -33zM345 341q-23 -7 -34 18q-3 7 -9 17.5t-14 26.5q-15 31 -20 46q-3 8 -3.5 14t2.5 11t9 8q20 10 35 -10q26 -49 47 -95q7 -25 -13 -36zM447 178v-169q-2 -18 -28 -21q-26 3 -26 23v174q-49 -69 -120 -123
q-13 -5 -24 -3.5t-19 8.5q-16 21 7 39q103 71 146 151h-110q-23 0 -23 25.5t23 28.5h120v36q0 20 26 23q26 -3 28 -21v-38h90q25 -3 28 -28q0 -13 -6.5 -19.5t-19.5 -6.5h-92v-15q67 -49 115 -103q21 -25 3 -43q-26 -18 -44 7q-25 31 -74 75zM565 3q-33 -2 -41 23
q-3 29 28 34q179 23 238 169q13 25 39 15q25 -15 15 -43q-74 -164 -279 -198z" />
    <glyph glyph-name="uniE636" unicode="&#xe636;" 
d="M858 317l-460 467q-5 6 -13 6t-13.5 -5.5t-5.5 -13t6 -12.5l447 -455l-453 -453q-6 -5 -6 -12.5t6 -13.5q1 -1 2.5 -2t3.5 -1.5t3.5 -1t3.5 -0.5q8 0 13 5l466 466q3 4 4.5 8.5t0 9t-4.5 8.5z" />
    <glyph glyph-name="uniE637" unicode="&#xe637;" 
d="M512 556l-512 -512h136l376 376l376 -376h136z" />
    <glyph glyph-name="uniE638" unicode="&#xe638;" 
d="M384 624v-3v-155v-2h-254q-2 1 -2 2v155l2 3h254zM385 656h-255q-14 0 -24 -10.5t-10 -24.5v-155q0 -14 10 -24t24 -10h255q6 0 12 2.5t10 7.5t6.5 11t2.5 13v155q0 14 -9 24.5t-23 10.5h1zM800 144q9 0 16.5 -4t11.5 -11.5t4 -16.5q0 -4 -1 -8t-3 -7.5t-5 -6.5t-6.5 -5
t-7.5 -3.5t-9 -1.5q-13 0 -22.5 9.5t-9.5 22.5t9.5 22.5t22.5 9.5zM800 176q-26 0 -45 -18.5t-19 -45t19 -45.5t45.5 -19t45 19t18.5 45.5t-18.5 45t-45.5 18.5zM273 144q9 0 16 -4t11.5 -11.5t4.5 -16t-4.5 -16t-11.5 -12t-16 -4.5t-16.5 4.5t-11.5 12t-4 16t4 16
t11.5 11.5t16.5 4zM273 176q-27 0 -45.5 -18.5t-18.5 -45t18.5 -45.5t45 -19t45.5 19t19 45q0 18 -8.5 32.5t-23.5 23t-32 8.5zM816 496v48q7 31 0 52.5t-27.5 32.5t-52.5 11q-13 0 -40 -4.5t-57.5 -12t-46.5 -15.5q-23 -12 -26 -24.5t10 -23.5v0q4 3 8.5 6.5t10 6.5t12.5 6
t15 5q-1 0 18.5 5.5t48 11.5t47.5 7q17 0 30.5 -4t18.5 -12q9 -12 0 -38q-1 -5 -1 -10v-48q0 -6 2 -12q4 -10 10.5 -25t11 -26t14.5 -34q22 -48 34.5 -78t32 -77t29 -79t9.5 -47q0 -57 -39.5 -96.5t-95.5 -39.5q-40 0 -73.5 21.5t-50.5 58.5q-9 18 -29 18h-222
q-21 0 -29 -18q-17 -37 -50.5 -58.5t-73.5 -21.5q-56 0 -96 39.5t-40 96.5q0 2 0.5 5t0.5 6t0.5 6t1.5 6q2 13 -5 23q-30 46 -30 100q0 55 21 104h267q-22 -20 -29.5 -53t0.5 -70q11 -46 41.5 -74t70.5 -28q9 0 18 2q99 16 161 83t73 168q5 45 -5.5 83.5t-34.5 66.5
q-1 0 -7 7q-11 10 -31 3q-14 -5 -5 -15q29 -19 43 -56.5t9 -84.5q-11 -100 -69 -155t-139 -69q-7 -1 -13 -1q-40 0 -64 38t-20 81t33 58v48h-319q-33 -59 -33 -136q0 -63 35 -117q0 -3 -1 -6v-6q-1 -3 -1 -5.5t-0.5 -5.5t-0.5 -6q0 -70 49.5 -119t118.5 -49q50 0 91.5 27
t61.5 71h222q10 -21 25.5 -39.5t35 -31.5t43.5 -20t49 -7q69 0 118 49t49 119q0 23 -18.5 77.5t-40.5 105.5t-49 113t-35 82z" />
    <glyph glyph-name="uniE639" unicode="&#xe639;" 
d="M925 469q0 -13 -9 -22l-346 -346q-23 -23 -55.5 -23t-55.5 23l-346 346q-9 9 -9 22t9 22t22 9t23 -9l345 -345q11 -12 23 0l345 345q10 9 23 9t22 -9t9 -22z" />
    <glyph glyph-name="uniE63A" unicode="&#xe63a;" 
d="M513 645q-94 0 -173.5 -46t-125.5 -125.5t-46 -173t46 -173t125.5 -126t173.5 -46.5q70 0 134 27.5t110 73.5t73.5 110t27.5 134t-27.5 134t-73.5 110.5t-110 73.5t-134 27zM602 94h-178q-4 0 -7.5 2t-5.5 5.5t-2 7.5q0 6 4.5 10.5t10.5 4.5h178q3 0 5.5 -1.5t4.5 -3.5
t3.5 -4.5t1.5 -5.5q-2 -14 -15 -15zM720 198q0 -19 -13 -32t-31 -13h-9l49 -48q10 -11 -0.5 -21.5t-20.5 0.5l-70 69h-225l-70 -69q-10 -11 -20.5 -0.5t-0.5 21.5l49 48h-8q-12 0 -22.5 6t-16.5 16.5t-6 22.5v222q0 43 30.5 73.5t73.5 30.5h207q43 0 73.5 -30.5t30.5 -73.5
v-222zM617 494h-208q-31 0 -52.5 -21.5t-21.5 -52.5v-104v-118q0 -3 0.5 -5t2 -4t3.5 -3.5t4 -2t5 -0.5h44h237h1h44q4 0 7.5 2t5.5 5.5t2 7.5v222q0 31 -22 52.5t-52 21.5zM424 450h178q6 0 10.5 -4.5t4.5 -10.5q0 -4 -2 -7.5t-5.5 -5.5t-7.5 -2h-178q-3 0 -6 1t-5 3t-3 5
t-1 6q0 4 2 7.5t5.5 5.5t7.5 2zM409 272q-12 0 -20.5 8.5t-8.5 21.5q0 8 3.5 14.5t10.5 10.5t15 4q12 0 21 -8.5t9 -21t-9 -21t-21 -8.5zM617 272q-13 0 -21.5 8.5t-8.5 21t8.5 21t21 8.5t21 -8.5t8.5 -20.5q0 -9 -4 -15.5t-10.5 -10.5t-14.5 -4zM513 748q-73 0 -141 -22.5
t-123 -64t-96.5 -96.5t-64 -123.5t-22.5 -141.5q0 -91 35.5 -173.5t95 -142.5t142.5 -95.5t174 -35.5t174 35.5t143 95.5t95 142.5t35 173.5t-35 174t-95 143t-143 95.5t-174 35.5zM808 6q-29 -29 -62 -51.5t-71 -38.5t-79 -24t-83 -8q-28 0 -55.5 3.5t-54 11t-52.5 17.5
q-75 32 -132 90q-58 57 -90 132q-33 77 -33 162t33 162q16 38 38.5 71t50.5 62q58 58 133 89q78 33 162 33q28 0 55.5 -3.5t54.5 -11t52 -18.5q38 -15 71 -37.5t61.5 -51.5t51 -62t38.5 -70q33 -78 33 -162.5t-33 -162.5q-32 -75 -89 -132z" />
    <glyph glyph-name="uniE63B" unicode="&#xe63b;" 
d="M164 559q0 -5 -4 -9t-10 -4h-105q-2 0 -5 1t-4.5 2.5t-3 4.5t-1.5 5v36q0 4 2 7.5t5.5 5t6.5 1.5h105q6 0 10 -4t4 -10v-36zM438 525q0 -6 -4 -10t-10 -4h-53q-3 0 -5.5 1t-4.5 3t-3 4.5t-1 5.5v24q0 6 4 10t10 4h53q6 0 10 -4t4 -10v-24zM861 525q0 -6 -4 -10t-10 -4
h-53q-6 0 -10 4t-4 10v24q0 4 2 7t5 5t7 2h53q6 0 10 -4t4 -10v-24zM546 541v80h127v-80h39v78q0 13 -6 23.5t-17 17t-23 6.5h-113q-13 0 -23.5 -6.5t-17 -17t-6.5 -23.5v-78h40zM881 543v-29q0 -10 -6.5 -16.5t-16.5 -6.5h-74q-9 0 -16 6.5t-7 16.5v29h-306v-26q0 -3 -1 -7
t-4 -6l-4 -6q-3 -2 -6.5 -3t-7.5 -1h-71q-10 0 -16.5 7t-6.5 16v26h-1q-12 0 -23 -6t-17 -17t-6 -23v-341q0 -13 6 -23.5t17 -16.5t23 -6h540q19 0 32.5 13.5t13.5 32.5v341q0 9 -3.5 17t-9 14t-13 10t-16.5 5zM413 144h-36v328h36v-328zM841 144h-37v328h37v-328zM275 85v1
l-65 506h-32v-24h16l63 -507h703v24h-685zM415 12h361v-24h-361v24zM318 7q-22 0 -38 -15.5t-16 -38.5q0 -11 4.5 -20.5t11.5 -17t17 -11.5t21 -4q15 0 27.5 7t19.5 19.5t7 26.5q0 34 -31 49q-11 5 -23 5zM320 -80q-14 0 -24 10t-10 24t10 24t24 10t23.5 -10t9.5 -24
t-9.5 -24t-23.5 -10zM320 -46zM299 -46q0 6 3 10.5t7.5 7.5t10.5 3q4 0 8 -2t6.5 -4.5t4 -6.5t1.5 -8q0 -9 -6 -15t-14 -6q-5 0 -8.5 2t-6.5 4.5t-4.5 6.5t-1.5 8zM876.5 7q-22.5 0 -38 -15.5t-15.5 -38t15.5 -38t38 -15.5t38 15.5t15.5 38t-15.5 38t-38 15.5zM878 -80
q-14 0 -24 10t-10 24t10 24t24 10t24 -10t10 -24q0 -24 -23 -32q-6 -2 -11 -2zM878 -46zM857 -46q0 9 6 15t15 6q6 0 10.5 -3t7.5 -7.5t3 -10.5q0 -9 -6 -15t-15 -6q-6 0 -10.5 3t-7.5 7.5t-3 10.5zM319 23q22 0 40 -13l14 34h-109l13 -36q18 15 42 15zM879 19q22 0 40 -13
l13 35h-108l12 -36q19 14 43 14z" />
    <glyph glyph-name="uniE63C" unicode="&#xe63c;" 
d="M719 302q-17 0 -29.5 -12.5t-12.5 -29.5t12.5 -29.5t29.5 -12.5t29.5 12.5t12.5 29.5t-12.5 29.5t-29.5 12.5zM719 242q-7 0 -12.5 5.5t-5.5 12.5q0 4 1.5 7t4 5.5t5.5 4t7 1.5q7 0 12.5 -5.5t5.5 -12.5q0 -5 -2.5 -9t-6.5 -6.5t-9 -2.5zM844 326h-28h-1q-33 92 -95 120
q-1 1 -3 2h-4q-2 1 -3.5 2t-3.5 1.5t-4 0.5q2 70 25 116l22 46l-50 -13q-22 -5 -40.5 -13.5t-34.5 -20.5t-29 -26.5t-23 -32.5q-26 5 -56 7q4 8 7 16.5t4.5 17.5t1.5 18q0 12 -2.5 23.5t-6.5 22t-10.5 20t-14.5 17.5t-17 14t-19.5 10.5t-22 7t-23.5 2.5q-31 0 -58 -15.5
t-42.5 -42.5t-15.5 -59q0 -46 32 -80q-37 -15 -65 -38q-4 8 -9 14t-10.5 11t-12.5 8.5t-14 5t-15 1.5q-14 0 -28 -6.5t-25 -17.5q-22 -25 -22 -62q0 -43 33 -80q9 -9 9 -11q-6 -21 -9 -43.5t-3 -47.5q0 -93 96 -170l2 -1q0 -1 1 -1q-5 -14 -15 -39q-4 -10 -4 -21t5 -20
q9 -21 30 -29l55 -20q9 -4 19 -4q16 0 30 9.5t20 25.5q6 17 12 33h1q2 0 3 -1q35 -7 70 -7q30 0 65 4h4q3 0 5 1q2 -6 12 -31q4 -10 11.5 -17.5t17.5 -12t21 -4.5q9 0 18 3l56 21q20 8 29 28.5t2 41.5l-8 20q62 35 94 102q3 5 4 6h2h28q9 0 16.5 3t14 7.5t11.5 11t7.5 14.5
t2.5 16v84q0 33 -30 47q-11 5 -22 5zM413 660q19 0 36 -7.5t29.5 -20t19.5 -29.5t7 -36q0 -25 -13 -47h-5h-4q-36 0 -69 -5t-63 -15q-30 27 -30 67q0 19 7 36t19.5 29.5t29.5 20t36 7.5zM872 190q0 -7 -3.5 -13.5t-10 -10.5t-14.5 -4h-28q-18 0 -27.5 -19.5t-22 -36.5
t-28.5 -31t-35 -25q-9 -4 -11.5 -10.5t-0.5 -10.5l1 -4l9 -24q4 -11 -1 -22.5t-16 -15.5l-55 -21q-2 -1 -3.5 -1t-3.5 -0.5t-3 -0.5q-21 0 -28 19q-7 16 -12 32q-6 13 -17 14q-2 0 -27.5 -2.5t-51.5 -2.5q-21 0 -38.5 2.5t-28 4.5t-13.5 2q-10 0 -16 -15l-13 -35
q-2 -6 -6.5 -10t-9.5 -6.5t-11 -2.5t-11 2l-55 21q-11 4 -16 15.5t-1 22.5q10 24 16 41q4 16 -11 28q-87 70 -87 151q0 46 11 83q3 7 0.5 14.5t-7 12t-10.5 12t-11.5 14.5t-9 19t-3.5 27q0 18 7.5 33t19 22t24.5 7q7 0 13 -2t12 -6.5t10.5 -11.5t7.5 -16q-3 3 -5.5 4.5
t-5.5 2.5t-5 2l-6 2q-2 1 -4 1h-4q-17 0 -25.5 -12.5t-3.5 -29t24 -24.5h5q7 0 16 8t18 19.5t10 12.5q82 77 223 77q52 0 102 -12q34 77 120 98q-14 -28 -20.5 -64.5t-6.5 -58.5v-23h2t5.5 -0.5t7 -1.5t8.5 -2.5t10 -3.5q53 -24 83 -109q6 -12 22 -13h28q12 0 20 -8t8 -20
v-84zM228 413q-3 -3 -4.5 -5t-4 -4t-3.5 -4q-3 2 -4.5 4t-2 4t0.5 4q2 4 6 5q6 -1 12 -4z" />
    <glyph glyph-name="uniE63D" unicode="&#xe63d;" 
d="M0 625v-650h1024v650h-1024zM37 13v574h950v-574h-950zM298 207q-6 -17 -8 -32h-1q-2 18 -7 32l-94 273h-51l127 -350h50l129 350h-49zM502 444h33v-275h-33v-38h112v38h-34v275h34v38h-112v-38zM858 457q-16 14 -38 21t-50 7h-100v-351h45v131h46q27 -1 50 7t41 24
q37 32 37 83t-31 78zM820 324q-22 -19 -64 -19h-41v140h46q40 0 60 -17t20 -51t-21 -53z" />
    <glyph glyph-name="uniE63E" unicode="&#xe63e;" 
d="M512 614q-10 -7 -26 -21t-58 -54t-73.5 -77t-57.5 -84.5t-26 -83.5q0 -98 70.5 -167t170.5 -69t170.5 69t70.5 167q0 102 -181 269q-34 31 -60 51zM506 109l43 183h-110l90 210l-43 -183h110zM512 810q-188 0 -331 -122q-136 -117 -170 -292q-9 -48 -9 -96
q0 -52 10.5 -102.5t30 -96t47 -86.5t62 -75.5t75.5 -62t86.5 -47t96 -30t102.5 -10.5q104 0 198 40.5t162.5 109t109 162.5t40.5 198t-40.5 198t-109 162.5t-162.5 109t-198 40.5zM512 24q-112 0 -191.5 77.5t-79.5 186.5q0 113 197 296q42 39 74 65l68 -60
q196 -180 203 -294v-7q0 -109 -79.5 -186.5t-191.5 -77.5z" />
    <glyph glyph-name="uniE63F" unicode="&#xe63f;" 
d="M899 15q0 -27 -15 -50.5t-41.5 -37.5t-56.5 -14h-548q-30 0 -56 14t-41.5 37.5t-15.5 50.5v570q0 42 33 72t80 30h548q47 0 80 -30t33 -72v-570zM786 750h-548q-73 0 -124.5 -48.5t-51.5 -116.5v-570q0 -68 51.5 -116.5t124.5 -48.5h548q73 0 124.5 48.5t51.5 116.5v570
q0 68 -51.5 116.5t-124.5 48.5zM786 40h-18v26v11v165q0 22 -15.5 37t-36.5 15h-406q-21 0 -36.5 -15t-15.5 -37v-165v-11v-26h-20q-10 0 -17 -7t-7 -16.5t7 -16.5t17 -7h548q10 0 17 7t7 16.5t-7 16.5t-17 7zM739 40h-451v91q10 28 22 27q10 0 14.5 -8t9.5 -8
q17 0 25.5 17.5t7.5 30.5v4q0 2 0.5 5t1.5 5l2 6q1 2 2.5 3.5t3.5 3t4 2.5q8 1 16 -7t12 -17q1 -4 5.5 -8t7.5 -6l3 -2q13 0 23.5 8t12.5 21q-3 35 17 35q5 0 9.5 -2t7 -5t4.5 -6.5t3 -7t2 -6.5t1 -5v-2q-1 -9 -10.5 -40t-9.5 -43q1 -1 0 -5t0.5 -10t3.5 -12t8.5 -10.5
t17 -6t17.5 1.5t10.5 6.5t5 10t1.5 7.5v4q0 10 -4.5 30t-9 37.5t-3.5 22.5v4q2 8 3 11.5t5 7.5t12 5q7 0 12 -4t6 -10.5t0.5 -13.5t-1.5 -11l-1 -5q2 -38 25 -39q20 -1 28 14.5t7 28.5q0 2 -7.5 19t-3.5 23q7 9 21 9q9 0 17.5 -10t14.5 -21l5 -12h13q6 8 11.5 14t8.5 8.5
t5 3.5l2 2h1q8 1 13.5 -4.5t7.5 -11.5l2 -7v-163zM662 395q9 0 17.5 -3.5t14.5 -9.5t9.5 -14.5t3.5 -17.5v-82h-389v82q0 19 13.5 32t32.5 13v1v1v65q0 2 1 3.5t2.5 2.5t3.5 1h38q2 0 4 -2t2 -5v-65v-2h66v1v1v65q0 7 7 7h38q2 0 4 -2t2 -5v-65v-1v-1h65v2v65q0 3 2 5t5 2
h38q2 0 4.5 -2t2.5 -5v-65l-1 -2h14zM678 294h-332v46q0 10 7 17.5t17 7.5h285q7 0 12.5 -3.5t8.5 -9t3 -12.5zM383 607q6 -5 14.5 -13t22.5 -29.5t14 -37.5q0 -13 -4.5 -22.5t-10 -13.5t-10.5 -6.5t-6 -3.5q1 1 1 3t0.5 7t1 9t0 9.5t-2 9.5t-4 7t-6.5 3q-1 -1 -3 -2
t-6.5 -4.5t-6.5 -9t0 -14.5t10 -21q-1 0 -2 0.5t-5 1.5t-7.5 3t-8 5.5t-8 8t-6 11.5t-2.5 15q0 1 -0.5 2.5t0 6.5t3.5 10t11 13t20 16q4 0 3 19q0 8 -2 17zM500 607q6 -5 14.5 -13t22.5 -29.5t14 -37.5q0 -13 -4.5 -22.5t-10 -13.5t-10.5 -6.5t-5 -3.5v3q0 2 0.5 7t1 9
t0 9.5t-1.5 9.5t-4 7t-7 3q-1 -1 -3 -2t-6.5 -4.5t-6.5 -9t0.5 -14.5t9.5 -21q-1 0 -3.5 0.5t-9 3.5t-12 7.5t-9.5 13.5t-5 20q0 1 -0.5 2.5t0 6.5t3.5 10t11 13t21 16l3 14q0 10 -3 22zM616 607q6 -5 14.5 -13t23 -29.5t13.5 -37.5q0 -13 -4.5 -22.5t-9.5 -13.5t-10.5 -6.5
t-5.5 -3.5v3q0 2 1 7t1 9t-0.5 9.5t-1.5 9.5t-4 7t-7 3q-1 -1 -3 -2t-6.5 -4.5t-6.5 -9t0.5 -14.5t10.5 -21q-2 0 -4.5 0.5t-9 3.5t-11.5 7.5t-9.5 13.5t-5.5 20v1q0 1 -0.5 3.5t0 5.5t3 7.5t6 9t10.5 10t16 11.5q4 0 3 19q-1 8 -3 17z" />
    <glyph glyph-name="uniE640" unicode="&#xe640;" 
d="M386 266v18q0 3 1 5t2.5 3t3.5 2t4 1h97v69h-97q-2 0 -4 0.5t-3.5 2t-2.5 3.5t-1 4v18q0 3 1 5t2.5 3t3.5 2t4 1h66l-49 49q-3 3 -3 7.5t3 7.5l13 13q7 8 15 0l71 -71l72 71q7 8 15 0l12 -13q8 -7 0 -15l-49 -49h68q2 0 4 -1t3.5 -2t2.5 -3t1 -5v-18q0 -4 -3.5 -7
t-7.5 -3h-97v-69h97q2 0 4 -1t3.5 -2t2.5 -3t1 -5v-18q0 -2 -1 -4t-2.5 -3.5t-3.5 -2t-4 -0.5h-97v-98q0 -4 -3.5 -7t-7.5 -3h-18q-4 0 -7.5 3t-3.5 7v98h-97q-4 0 -7.5 3t-3.5 7zM797 685v-773q0 -16 -11.5 -28t-28.5 -12h-486q-16 0 -28 12t-12 28v157v459v157
q0 17 12 28.5t28 11.5h486q17 0 28.5 -11.5t11.5 -28.5zM572 -39q0 4 -3 7t-7 3h-96q-10 0 -10 -10v-22q0 -4 3 -7t7 -3h96q2 0 4 0.5t3.5 2t2 3.5t0.5 4v22zM720 642h-412v-114v-459v-69h412v642z" />
    <glyph glyph-name="uniE641" unicode="&#xe641;" 
d="M724 279v1q1 1 1 2q3 4 4 9t1 9.5t-0.5 9.5t-2.5 9.5t-4.5 8.5t-6.5 8l-344 325q-14 13 -33 12.5t-32.5 -14.5t-13 -33.5t14.5 -32.5l309 -292l-308 -296q-14 -13 -14 -32.5t13 -33.5q14 -14 34 -14q19 0 32 13l341 328l1 1v1.5t0.5 0.5t1.5 1t6 9zM724 279z" />
    <glyph glyph-name="uniE642" unicode="&#xe642;" 
d="M951 639l-2 24l-24 -1q-76 -2 -146.5 7.5t-120.5 27t-78 30t-48 24.5l-6 4l-14 9l-14 -9q-1 -1 -2.5 -2t-3.5 -2q-20 -12 -48 -25t-78 -30t-120.5 -26.5t-146.5 -7.5l-24 1l-2 -24q-3 -18 -4 -47.5t5.5 -111t25.5 -156.5q44 -169 145.5 -291.5t251.5 -189.5l15 -7l14 7
q151 67 252.5 189.5t145.5 291.5q19 75 25.5 156.5t5.5 111t-4 47.5zM361 107h-41v252q-17 -31 -36 -58l-4 -5l-2 6q-6 20 -14 39l-1 2l1 1q63 94 98 228l1 3l41 -12l-1 -3q-19 -63 -42 -117v-336zM743 179q-3 -4 -5.5 -8t-5.5 -7l-4 -8q-3 -3 -5 -6t-3 -6l-2 -3l-3 2
q-84 50 -131 134v-172h-41v175q-56 -95 -138 -147l-3 -1l-2 2q-10 13 -26 29l-3 3l4 2q81 45 132 123h-121v39h157v57h-71v-21h-43v188h270v-185h-43v18h-72v-57h156v-39h-126q11 -17 24.5 -32t29.5 -28.5t34.5 -25t39.5 -21.5l3 -2zM472 515h184v-90h-184v90z" />
    <glyph glyph-name="uniE643" unicode="&#xe643;" 
d="M263 206l157 -156l343 344l-156 156zM185 -28l219 63l-156 156zM828 517l-98 97q-6 6 -14 9t-16 3t-16 -3.5t-15 -9.5l-46 -47l156 -157l47 47q13 13 13.5 31t-11.5 30zM828 517z" />
    <glyph glyph-name="uniE644" unicode="&#xe644;" 
d="M942 271h-860q-8 0 -14.5 4t-10.5 10.5t-4 14.5q0 4 1 7.5t3 7t4.5 6t6 4.5t7 3t7.5 1h860q12 0 20.5 -8.5t8.5 -20.5t-8.5 -20.5t-20.5 -8.5zM942 271h-860q-8 0 -14.5 4t-10.5 10.5t-4 14.5q0 4 1 7.5t3 7t4.5 6t6 4.5t7 3t7.5 1h860q12 0 20.5 -8.5t8.5 -20.5
t-8.5 -20.5t-20.5 -8.5zM942 -52h-860q-12 0 -20.5 8.5t-8.5 20.5q0 8 4 15t10.5 11t14.5 4h860q12 0 20.5 -8.5t8.5 -21t-8.5 -21t-20.5 -8.5zM942 -52h-860q-12 0 -20.5 8.5t-8.5 20.5q0 8 4 15t10.5 11t14.5 4h860q12 0 20.5 -8.5t8.5 -21t-8.5 -21t-20.5 -8.5zM942 593
h-860q-6 0 -11 2.5t-9 6.5t-6.5 9.5t-2.5 10.5q0 8 4 15t10.5 11t14.5 4h860q8 0 14.5 -4t10.5 -11t4 -15q0 -12 -8.5 -20.5t-20.5 -8.5zM942 593h-860q-6 0 -11 2.5t-9 6.5t-6.5 9.5t-2.5 10.5q0 8 4 15t10.5 11t14.5 4h860q8 0 14.5 -4t10.5 -11t4 -15q0 -12 -8.5 -20.5
t-20.5 -8.5z" />
    <glyph glyph-name="uniE645" unicode="&#xe645;" 
d="M482 83q-24 0 -41.5 -17.5t-17.5 -42.5t17.5 -42.5t42 -17.5t42 17.5t17.5 42.5q0 16 -8 30t-21.5 22t-30.5 8zM769 83q-25 0 -42.5 -17.5t-17.5 -42.5q0 -16 8 -30t21.5 -22t30.5 -8q25 0 42.5 17.5t17.5 42.5q0 38 -34 54q-13 6 -26 6zM839 193h-417l-143 425
q-7 18 -29 18h-127q-13 0 -22 -8t-9 -20q0 -4 1 -7t2.5 -6t3.5 -5.5t4.5 -4.5t5.5 -3.5t6.5 -2t7.5 -0.5h105l143 -424q7 -19 29 -19h439q13 0 21.5 8t8.5 20.5t-8.5 20.5t-21.5 8zM904 524l-516 45q-12 1 -18.5 -7t-1.5 -20l90 -270q4 -12 16 -21.5t24 -9.5h377q12 0 22 10
t11 23l23 216q1 8 -2 15.5t-10 12.5t-15 6z" />
    <glyph glyph-name="uniE646" unicode="&#xe646;" 
d="M-53 829zM931 588q29 0 44 -8q8 -3 13.5 -7.5t8.5 -9.5q7 -11 6 -23q0 -5 -0.5 -9t-1 -7t-1.5 -7l-14 -36l-21 -61l-23 -65q-14 -42 -17 -52q-7 -18 -15.5 -32t-17.5 -22q-20 -15 -49 -15h-525l15 -88h503q49 0 49 -41q0 -20 -10 -34q-9 -15 -38 -15h-524q-6 0 -12 1
t-11 3t-10 5q-13 9 -22 23q-4 7 -8 14.5t-7 16.5q-6 21 -8 32l-5 29l-12 56l-14 76l-16 85l-43 222h-75q-16 0 -25 7q-10 7 -17 17q-3 7 -5.5 12.5t-3.5 11t-1.5 11t-0.5 9.5q0 20 13 34q7 5 16 8.5t20 3.5h102q20 0 32 -6q5 -3 10 -6.5t10 -7.5q6 -10 8 -19l6 -18
q1 -4 3 -16v-6l5 -28l5 -38h684zM764 28q8 0 17.5 -2t18.5 -5q18 -7 30 -20q13 -13 21 -29q6 -16 6 -35q0 -9 -1.5 -18.5t-4.5 -16.5q-8 -16 -21 -30q-12 -12 -30 -19q-17 -8 -36.5 -8t-36.5 8t-29 19q-13 14 -19 30q-8 16 -8 35q0 9 1.5 18t6.5 17q6 16 19 29q6 7 13.5 12
t15.5 8q6 2 12 3.5t12 2.5t13 1zM348 30q18 0 36 -7q17 -6 30 -20q6 -6 11 -13.5t9 -14.5q7 -18 7 -36t-7 -35q-7 -15 -20 -30q-13 -12 -30.5 -19t-35.5 -7q-20 0 -37 6q-16 8 -30 20q-13 15 -19 30q-7 17 -7 35t7 36q3 7 8 14.5t11 13.5q5 5 10 8l9 7q6 3 11 5q5 1 9 3
t8.5 2.5t9.5 1t10 0.5z" />
    <glyph glyph-name="uniE647" unicode="&#xe647;" 
d="M512 682q56 0 109 -195l12 -51q4 1 9.5 1.5t22.5 1.5t34 1.5t40.5 0.5t44 -1t41.5 -4t37 -8t28 -13t15 -18q6 -18 -13 -45.5t-46 -50t-63 -48t-51 -34.5t-23 -14q4 -9 10.5 -25t21 -57.5t22.5 -75.5t7.5 -67.5t-15.5 -44.5q-9 -12 -31 -6t-41.5 13.5t-46.5 25.5
t-45.5 31.5t-40 31t-28 23t-10.5 9.5q-2 -3 -6.5 -6.5t-18 -15t-26 -21t-32.5 -24.5t-36 -24.5t-36.5 -21.5t-34.5 -15.5t-30 -6t-23 6.5q-15 11 -15.5 44t7.5 67.5t22.5 76t21 57.5t10.5 25q-4 3 -12 7.5t-30 19t-42 29t-43.5 33.5t-39.5 36.5t-24.5 35.5t-4.5 31
q6 18 37.5 29t66.5 13.5t79 1.5t61.5 -2.5t27.5 -2.5q2 10 6 27t16.5 59t26 74.5t33.5 59t39 26.5z" />
    <glyph glyph-name="uniE648" unicode="&#xe648;" 
d="M420 766h93v-373q0 -9 -10.5 -17.5t-26 -15.5t-31.5 -10.5t-25 -3.5v-512q0 -19 -14 -32.5t-33 -13.5h-93q-20 0 -33.5 13.5t-13.5 32.5v512q-9 0 -24.5 3.5t-31 10.5t-26.5 15.5t-11 17.5v373h93v-327h47v327h93v-327h47v327zM745.5 766q139.5 0 139.5 -140v-792
q0 -19 -13.5 -32.5t-32.5 -13.5h-94q-19 0 -33 13.5t-14 32.5v373h-92v419q0 140 139.5 140z" />
    <glyph glyph-name="uniE649" unicode="&#xe649;" 
d="M501 335q-22 0 -35 13q-13 14 -13 36q0 20 13 34q12 13 33 13t35 -13q13 -13 13 -34q0 -23 -13 -36t-33 -13zM550 239q19 -17 19 -45q0 -27 -18 -44q-20 -16 -49 -16q-31 0 -50 18q-20 18 -20 43.5t21 43.5q19 18 50 18q28 0 47 -18zM931 652q39 0 66 -27t27 -66v-558
q0 -39 -27 -66t-66 -27h-93v46h-47v-46h-698q-39 0 -66 27t-27 66v558q0 39 27 66t66 27h698v-47h47v47h93zM278 501h-124l-49 -78h81v-355h92v433zM633 121q18 31 18 68q0 35 -16 64q-15 31 -45 49q21 23 32 45q8 22 8 43q0 35 -17 62q-17 29 -46 45q-29 15 -65 15
q-40 0 -69 -15q-30 -16 -46 -44q-16 -27 -16 -62q0 -25 10 -47q8 -20 30 -42q-32 -24 -45 -50q-16 -30 -16 -63q0 -39 18.5 -70.5t50.5 -46.5q31 -16 84 -16q49 0 79 17q30 14 51 48zM838 93h-47v-46h47v46zM838 232h-47v-47h47v47zM838 372h-47v-47h47v47zM838 511h-47v-46
h47v46z" />
    <glyph glyph-name="uniE64A" unicode="&#xe64a;" 
d="M-7 -49zM112 298l-74 -179h95l107 113h180l-77 -381l89 1l217 374l268 2q26 0 41.5 10t23.5 26q4 8 6 17t3 19q-2 19 -10 34q-18 34 -65 34h-268l-217 381l-95 -1l125 -381l-223 -1l-107 111l-96 -1zM1032 -49z" />
    <glyph glyph-name="uniE64B" unicode="&#xe64b;" 
d="M-72 912zM425 778h94v-376q0 -9 -10.5 -18t-26 -16t-32 -10.5t-25.5 -3.5v-517q0 -20 -13.5 -33.5t-33.5 -13.5h-94q-20 0 -33.5 13.5t-13.5 33.5v517q-10 0 -26 3.5t-31 10.5t-26.5 16t-11.5 18v376h95v-330h47v330h94v-330h47v330zM754 778q141 0 141 -142v-799
q0 -20 -13 -33.5t-33 -13.5h-95q-20 0 -34 13.5t-14 33.5v377h-93v422q0 142 141 142z" />
    <glyph glyph-name="uniE64C" unicode="&#xe64c;" 
d="M202 -162h616v626h-616v-626zM337 506v117q0 6 1.5 12.5t4.5 11.5t7.5 9.5t10 7.5t11.5 5t13 2h250q6 0 11.5 -1.5t10 -3.5t8.5 -5.5t7.5 -7.5t6 -9t3.5 -10.5t1 -10.5v-117h68v117q0 31 -15.5 57.5t-42 42t-58.5 15.5h-250q-48 0 -82 -34t-34 -81v-117h68zM91 464h63
v-626h-63q-34 0 -58 24t-24 58v462q0 34 24 58t58 24zM929 464h-63v-626h63q34 0 58 24t24 58v462q0 34 -24 58t-58 24zM333 -33v191l-21 15l51 162l34 -25l-45 -142h26v-201h-45zM470 223h185v66h-185v-66zM612 100h-28v-133h-43v133h-28l-62 -133l-38 13l55 120h-53v40
h126v46h-114v142h272v-142h-115v-46h124v-40h-53l53 -119l-37 -14z" />
    <glyph glyph-name="uniE64D" unicode="&#xe64d;" 
d="M917 -152l-226 194h-2q58 0 93.5 23t35.5 74v419q0 31 -7.5 58t-28 52.5t-52.5 43.5t-83.5 29t-118.5 11q-291 0 -291 -194v-419q0 -18 4.5 -32.5t13 -25t20 -18t26.5 -12.5t31 -7t34 -2l-226 -194h711v1l1 -1h65zM722 177q-5 -13 -21 -20.5t-30 -2.5t-14 23v61
q0 7 6.5 16t16 16.5t19 14.5t16.5 11l7 4q13 0 22.5 -9t9.5 -22q1 -1 -32 -92zM664 9h-271l38 33h195zM527.5 720q4.5 0 9 -1t8 -3.5t6.5 -5.5t5 -6.5t3 -7.5t1 -8q0 -14 -9.5 -23.5t-22.5 -9.5q-7 0 -13 2.5t-10 7t-7 10.5t-3 13q0 23 23 30q5 2 9.5 2zM302 558q0 27 19 46
t45 19h323q27 0 46 -19t19 -46v-64q0 -27 -19 -46t-46 -19h-161h-162q-26 0 -45 19t-19 46v64zM334 171l-32 97q0 13 9.5 22.5t22.5 9.5q3 -2 7 -4.5t15.5 -10.5t20 -16t15.5 -17.5t7 -16.5v-64q0 -19 -14 -24t-30 2.5t-21 21.5zM366 -14v-9h323v10l50 -42h-421zM242 -120
l38 32h497l37 -32h-572z" />
    <glyph glyph-name="uniE64E" unicode="&#xe64e;" 
d="M512 749q-8 -7 -22 -18.5t-54.5 -47.5t-77 -72t-81 -87t-76.5 -97.5t-54 -98.5t-22 -94q0 -103 51.5 -190t141 -137.5t194.5 -50.5t194 50.5t141 137.5t52 190q0 33 -13 72t-35.5 76.5t-51.5 77t-61 75t-64.5 68t-61.5 59t-51.5 46t-35.5 30.5zM478 24l34 169h-169
l219 269l-33 -168h168z" />
    <glyph glyph-name="uniE64F" unicode="&#xe64f;" 
d="M510 -96l-149 256q-161 -64 -217 -102q-16 -11 -30 -31t-23 -40.5t-15.5 -40.5t-9.5 -31.5t-3 -12.5h894q0 2 -1 4l-2 10q-1 8 -3 16t-6 19.5t-8.5 22.5t-11 23t-13.5 22.5t-16.5 20.5t-20.5 18q-56 38 -217 102l-148 -256v0zM510 109l-50 -51l25 -52l-75 -102h199
l-75 102l25 52l-49 51v0zM515 697q32 0 59 -5t47.5 -14.5t37 -20t28 -27.5t20 -31t13.5 -34.5t8 -34.5t4 -36t1.5 -33.5t0.5 -31.5q0 -29 -10 -65.5t-29.5 -73t-45.5 -67.5t-61 -50t-73 -19q-47 0 -89.5 29t-69.5 72.5t-43.5 90t-16.5 83.5q0 22 0.5 35t2.5 37.5t5.5 40
t11 38t18 37.5t27.5 31.5t38 26t51 16t65 6.5v0zM768 368h-32v152l68 -82zM226 438l68 82v-152h-33zM760 367l-15 -53q-41 -115 -117 -158q-33 -18 3 24l38 39q2 2 6 6.5t14.5 19.5t19.5 31t19 41t16 50q15 66 16 16v-16v0zM760 367z" />
    <glyph glyph-name="uniE650" unicode="&#xe650;" 
d="M511 -109l-149 257q-162 -64 -218 -103q-25 -17 -45 -57t-27.5 -67.5t-7.5 -31.5h896q0 5 -1.5 12.5t-8 29t-15 40.5t-23.5 40.5t-34 33.5q-25 18 -79.5 43.5t-96.5 42.5l-42 17zM511 97l-50 -52l25 -51l-74 -103h199l-75 103l25 51zM517 687q35 0 64.5 -6.5t51 -16
t38.5 -26t27.5 -31.5t18 -37.5t11 -38.5t5.5 -40.5t2.5 -37.5t0.5 -35q0 -29 -10 -65.5t-29.5 -73.5t-45.5 -67.5t-61.5 -50t-72.5 -19.5q-28 0 -54 10t-47.5 27.5t-40.5 40.5t-33 49t-24.5 52.5t-15.5 51t-5 45.5q0 22 0.5 35t2.5 37.5t5.5 40.5t11 38.5t18.5 37.5
t27.5 31.5t38 26t51 16t65.5 6.5v0v0zM771 357h-33v152l68 -82zM226 427l69 82v-152h-33zM763 356q-1 -7 -4 -17.5t-13.5 -40t-24 -55t-38 -54t-53.5 -45.5q-33 -18 4 24q16 19 37 39q6 7 16 19t30 51t29 79q8 36 13 37q5 0 4 -37v0v0zM763 356z" />
    <glyph glyph-name="uniE651" unicode="&#xe651;" 
d="M912 751h-804q-19 0 -32.5 -13.5t-13.5 -32.5v-803q0 -7 1.5 -13t4.5 -11t7.5 -9t9.5 -7t11 -5t12 -2h804q7 0 14 2.5t13 6.5t10 10t6.5 13t2.5 15v803q0 19 -13.5 32.5t-32.5 13.5zM242 -37h-91v92h91v-92zM242 113h-91v92h91v-92zM242 263h-91v91h91v-91zM242 412h-91
v92h91v-92zM242 562h-91v91h91v-91zM691 -37h-362v300h362v-300zM691 354h-362v299h362v-299zM870 -37h-91v92h91v-92zM870 113h-91v92h91v-92zM870 263h-91v91h91v-91zM870 412h-91v92h91v-92zM870 562h-91v91h91v-91z" />
    <glyph glyph-name="uniE652" unicode="&#xe652;" 
d="M736 428h-435q-100 -5 -168.5 -79.5t-68.5 -176.5q0 -101 67.5 -176t162.5 -80h436q96 10 163 83t67 173q0 101 -64 173.5t-160 82.5zM390 140h-70v-77q0 -3 -0.5 -4t-1.5 -1.5t-4 -0.5h-52q-4 0 -5 0.5t-1 5.5v77h-77q-6 0 -6 6v52q2 6 6 6h77v70q0 4 0.5 5t1.5 1.5
t4 0.5h45q7 0 7 -7v-76h76q7 0 7 -7v-45l-2 -5q-3 -1 -5 -1zM646 134q-28 0 -36 25q-2 7 -2 13q0 16 10 27t28 11q29 0 37 -25q2 -7 2 -13q-13 -38 -39 -38zM736 44q-29 0 -37 26q-1 6 -1 12q0 16 10 27.5t28 11.5q38 0 38 -39q0 -14 -12 -26t-26 -12zM736 230q-29 0 -37 25
q-1 7 -1 13q0 16 10 27t28 11q38 0 38 -38q0 -31 -29 -37q-5 -1 -9 -1zM826 134q-29 0 -37 25q-2 7 -2 13q0 16 10 27t29 11q38 0 38 -38q0 -7 -3.5 -14t-8.5 -12.5t-12 -8.5t-14 -3zM576 537q-10 0 -18.5 -1t-14.5 -3l-11 -3q-4 -2 -6.5 -5t-4 -5t-2 -6t-1 -5.5t-0.5 -5.5
v-5v-51h-70v83q0 20 9 34t22.5 19.5t26.5 8.5t22 3l10 -1q99 5 102 39v64h70v-90q-2 -15 -6.5 -25.5t-13.5 -18t-15 -11.5t-21 -7t-22.5 -4t-27.5 -2t-28 -2z" />
    <glyph glyph-name="uniE653" unicode="&#xe653;" 
d="M807 74q-10 -5 -10.5 -44.5t-13.5 -50.5q-7 -8 -28.5 -10t-38 0t-23.5 0q-7 1 -8 8t1.5 14.5t1 12.5t-10.5 4q-44 -13 -113 -13q-8 0 -16 1h-16l-16 2q-2 0 -2.5 -6.5t-3.5 -13.5t-9 -9q-17 -1 -27 -1h-22q-11 0 -16 1q-23 0 -22 29q0 19 -2 21l-16 6q-2 -1 -2.5 -3
t-0.5 -5t0.5 -6.5t-1 -7t-4.5 -6.5q-16 -8 -55.5 -5t-45.5 14q-6 23 -2 37t8.5 23t1.5 12q-43 31 -74 70q-15 16 -29.5 21.5t-25 4.5t-25 2.5t-26.5 14.5q-15 27 -11 71t13 55q5 7 11 8.5t10 0.5t9.5 3.5t9.5 16.5q9 115 104 202q-3 2 -11 10l-11 11q-4 4 -10.5 11.5
t-9.5 13t-6.5 12.5t-2.5 13t3 12.5t8.5 12.5t16.5 12q26 5 73.5 -8t68 -22t33.5 -15q69 21 145 21q105 0 189.5 -43t130 -115t45.5 -159q0 -56 -9 -96.5t-35.5 -78t-71.5 -66.5zM321 477q-7 0 -14 -2.5t-12.5 -6.5t-9.5 -9.5t-6 -12t-2 -14.5q0 -18 13 -31t31 -13
q9 0 17 3.5t14 9.5t9.5 14t3.5 17t-3.5 17.5t-9.5 14.5t-14 9.5t-17 3.5zM719 503q-10 4 -27 8.5t-64 12t-88 5.5q-10 0 -17.5 -7.5t-7.5 -18t7.5 -18t17.5 -7.5q94 8 179 -26q5 0 9.5 2t8 5.5t5.5 8.5t2 10q0 10 -7.5 17.5t-17.5 7.5z" />
  </font>
</defs>
</svg>
